<?xml version="1.0" encoding="UTF-8" standalone="no"?>
<!-- Created with Inkscape (http://www.inkscape.org/) -->

<svg
   xmlns:dc="http://purl.org/dc/elements/1.1/"
   xmlns:cc="http://creativecommons.org/ns#"
   xmlns:rdf="http://www.w3.org/1999/02/22-rdf-syntax-ns#"
   xmlns:svg="http://www.w3.org/2000/svg"
   xmlns="http://www.w3.org/2000/svg"
   xmlns:sodipodi="http://sodipodi.sourceforge.net/DTD/sodipodi-0.dtd"
   xmlns:inkscape="http://www.inkscape.org/namespaces/inkscape"
   width="36"
   height="36"
   viewBox="0 0 9.5249999 9.5250003"
   version="1.1"
   id="svg20037"
   inkscape:version="0.92.4 (5da689c313, 2019-01-14)"
   sodipodi:docname="act_col_sas_arrow_right_36.svg">
  <defs
     id="defs20031" />
  <sodipodi:namedview
     id="base"
     pagecolor="#ffffff"
     bordercolor="#666666"
     borderopacity="1.0"
     inkscape:pageopacity="0.0"
     inkscape:pageshadow="2"
     inkscape:zoom="3.959798"
     inkscape:cx="82.164161"
     inkscape:cy="39.327093"
     inkscape:document-units="px"
     inkscape:current-layer="g851"
     showgrid="false"
     units="px"
     inkscape:window-width="1920"
     inkscape:window-height="1017"
     inkscape:window-x="-8"
     inkscape:window-y="-8"
     inkscape:window-maximized="1"
     showguides="true"
     inkscape:guide-bbox="true">
    <sodipodi:guide
       position="0.26458334,4.0591561"
       orientation="1,0"
       id="guide4579"
       inkscape:locked="false"
       inkscape:label=""
       inkscape:color="rgb(0,0,255)" />
  </sodipodi:namedview>
  <metadata
     id="metadata20034">
    <rdf:RDF>
      <cc:Work
         rdf:about="">
        <dc:format>image/svg+xml</dc:format>
        <dc:type
           rdf:resource="http://purl.org/dc/dcmitype/StillImage" />
        <dc:title></dc:title>
      </cc:Work>
    </rdf:RDF>
  </metadata>
  <g
     inkscape:label="Capa 1"
     inkscape:groupmode="layer"
     id="layer1"
     transform="translate(0,-287.47498)">
    <g
       display="none"
       id="g9991"
       style="display:none;fill:#ff00ff;stroke-width:1"
       transform="matrix(0.26458333,0,0,0.26458333,0,290.64998)">
      <g
         id="g9983"
         style="fill:#ff00ff;stroke-width:1" />
      <g
         id="g9989"
         display="inline"
         style="display:inline;fill:#ff00ff;stroke-width:1">
        <path
           inkscape:connector-curvature="0"
           id="path9985"
           d="m 12,12 c 2.21,0 4,-1.79 4,-4 C 16,5.79 14.21,4 12,4 9.79,4 8,5.79 8,8 c 0,2.21 1.79,4 4,4 z m 0,-6 c 1.1,0 2,0.9 2,2 0,1.1 -0.9,2 -2,2 -1.1,0 -2,-0.9 -2,-2 0,-1.1 0.9,-2 2,-2 z"
           style="fill:#ff00ff;stroke-width:1" />
        <path
           inkscape:connector-curvature="0"
           id="path9987"
           d="m 12,13 c -2.67,0 -8,1.34 -8,4 v 2 c 0,0.55 0.45,1 1,1 h 14 c 0.55,0 1,-0.45 1,-1 v -2 c 0,-2.66 -5.33,-4 -8,-4 z m 6,5 H 6 V 17.01 C 6.2,16.29 9.3,15 12,15 c 2.7,0 5.8,1.29 6,2 z"
           style="fill:#ff00ff;stroke-width:1" />
      </g>
    </g>
    <g
       display="none"
       id="g10001"
       style="display:none;fill:#ff00ff;stroke-width:1"
       transform="matrix(0.26458333,0,0,0.26458333,0,290.64998)">
      <g
         id="g9993"
         style="fill:#ff00ff;stroke-width:1" />
      <g
         id="g9999"
         display="inline"
         style="display:inline;fill:#ff00ff;stroke-width:1">
        <path
           inkscape:connector-curvature="0"
           id="path9995"
           d="m 12,12 c 2.21,0 4,-1.79 4,-4 C 16,5.79 14.21,4 12,4 9.79,4 8,5.79 8,8 c 0,2.21 1.79,4 4,4 z m 0,-6 c 1.1,0 2,0.9 2,2 0,1.1 -0.9,2 -2,2 -1.1,0 -2,-0.9 -2,-2 0,-1.1 0.9,-2 2,-2 z"
           style="fill:#ff00ff;stroke-width:1" />
        <path
           inkscape:connector-curvature="0"
           id="path9997"
           d="m 12,13 c -2.67,0 -8,1.34 -8,4 v 3 h 16 v -3 c 0,-2.66 -5.33,-4 -8,-4 z m 6,5 H 6 V 17.01 C 6.2,16.29 9.3,15 12,15 c 2.7,0 5.8,1.29 6,2 z"
           style="fill:#ff00ff;stroke-width:1" />
      </g>
    </g>
    <g
       display="none"
       id="g10021"
       style="display:none;fill:#ff00ff;stroke-width:1"
       transform="matrix(0.26458333,0,0,0.26458333,0,290.64998)">
      <g
         id="g10009"
         style="fill:#ff00ff;stroke-width:1" />
      <g
         id="g10019"
         display="inline"
         style="display:inline;fill:#ff00ff;stroke-width:1">
        <circle
           id="circle10011"
           r="2"
           cy="8"
           cx="12"
           style="opacity:0.3;fill:#ff00ff;stroke-width:1" />
        <path
           inkscape:connector-curvature="0"
           id="path10013"
           d="M 12,15 C 9.3,15 6.2,16.29 6,17.01 V 18 h 12 v -1 c -0.2,-0.71 -3.3,-2 -6,-2 z"
           style="opacity:0.3;fill:#ff00ff;stroke-width:1" />
        <path
           inkscape:connector-curvature="0"
           id="path10015"
           d="m 12,12 c 2.21,0 4,-1.79 4,-4 C 16,5.79 14.21,4 12,4 9.79,4 8,5.79 8,8 c 0,2.21 1.79,4 4,4 z m 0,-6 c 1.1,0 2,0.9 2,2 0,1.1 -0.9,2 -2,2 -1.1,0 -2,-0.9 -2,-2 0,-1.1 0.9,-2 2,-2 z"
           style="fill:#ff00ff;stroke-width:1" />
        <path
           inkscape:connector-curvature="0"
           id="path10017"
           d="m 12,13 c -2.67,0 -8,1.34 -8,4 v 3 h 16 v -3 c 0,-2.66 -5.33,-4 -8,-4 z m 6,5 H 6 V 17.01 C 6.2,16.29 9.3,15 12,15 c 2.7,0 5.8,1.29 6,2 z"
           style="fill:#ff00ff;stroke-width:1" />
      </g>
    </g>
    <g
       display="none"
       id="g10031"
       style="display:none;fill:#ff00ff;stroke-width:1"
       transform="matrix(0.26458333,0,0,0.26458333,0,290.64998)">
      <g
         id="g10023"
         style="fill:#ff00ff;stroke-width:1" />
      <g
         id="g10029"
         display="inline"
         style="display:inline;fill:#ff00ff;stroke-width:1">
        <path
           inkscape:connector-curvature="0"
           id="path10025"
           d="m 12,12 c 2.21,0 4,-1.79 4,-4 C 16,5.79 14.21,4 12,4 9.79,4 8,5.79 8,8 c 0,2.21 1.79,4 4,4 z m 0,-6 c 1.1,0 2,0.9 2,2 0,1.1 -0.9,2 -2,2 -1.1,0 -2,-0.9 -2,-2 0,-1.1 0.9,-2 2,-2 z"
           style="fill:#ff00ff;stroke-width:1" />
        <path
           inkscape:connector-curvature="0"
           id="path10027"
           d="m 12,13 c -2.67,0 -8,1.34 -8,4 v 3 h 16 v -3 c 0,-2.66 -5.33,-4 -8,-4 z m 6,5 H 6 V 17.01 C 6.2,16.29 9.3,15 12,15 c 2.7,0 5.8,1.29 6,2 z"
           style="fill:#ff00ff;stroke-width:1" />
      </g>
    </g>
    <g
       id="g887"
       transform="matrix(0.5,0,0,0.5,0,148.49999)"
       style="stroke-width:2">
      <g
         transform="matrix(0.79375001,0,0,0.79375001,-3.1750001,281.12498)"
         style="fill:none;stroke-width:1"
         id="g9981">
        <g
           style="display:none;fill:none;stroke-width:1"
           id="g9977"
           display="none" />
        <path
           style="fill:none;stroke-width:1"
           d="M 0,0 H 24 V 24 H 0 Z"
           id="path9979"
           inkscape:connector-curvature="0" />
      </g>
      <g
         style="stroke-width:3.00094557"
         transform="matrix(0.66672935,0,0,0.66618386,-4.4233339,89.142255)"
         id="g851">
        <g
           id="g4713"
           transform="translate(4.6664601,-4.7659562)">
          <ellipse
             style="opacity:1;fill:#fb9a99;fill-opacity:1;fill-rule:evenodd;stroke:none;stroke-width:0.66696018;stroke-linecap:round;stroke-linejoin:round;stroke-miterlimit:4;stroke-dasharray:none;stroke-dashoffset:0;stroke-opacity:1"
             id="circle12730"
             cx="11.39643"
             cy="302.48065"
             rx="8.3335924"
             ry="8.340415" />
          <g
             transform="matrix(0.31220981,0,0,0.31220981,42.011525,170.98072)"
             id="g862"
             style="stroke-width:3.00094557">
            <path
               inkscape:connector-curvature="0"
               d="m -109.47693,417.59824 7.85732,8.06877 v 10.97023 h -0.0622 v 0.0356 h -6.44352 v -4.73537 l -6.57483,-8.69377 c -0.26301,-0.32412 -0.43434,-0.72289 -0.43434,-1.15996 V 408.7251 c 0,-1.04531 0.84815,-1.89656 1.89709,-1.89656 1.04201,0 1.89257,0.85125 1.89257,1.89656 v 7.71448 c -0.45862,0.10033 -0.89499,0.293 -1.24453,0.63497 -1.0041,0.9837 -1.02876,2.59922 -0.0488,3.60653 l 3.58684,3.69111 0.48768,-0.47715 -3.59162,-3.68187 c -0.71682,-0.74306 -0.70143,-1.93112 0.0336,-2.65501 0.23152,-0.21732 0.50307,-0.37202 0.79479,-0.45454 0.3119,-0.089 0.63441,-0.0934 0.94391,-0.0288 0.34987,0.0866 0.66142,0.26595 0.90629,0.52333 z"
               id="path2-0"
               style="stroke-width:1.02672672" />
            <path
               inkscape:connector-curvature="0"
               d="m -86.590319,417.59824 -7.86177,8.06877 v 10.97023 h 0.06225 v 0.0356 h 6.447964 v -4.73537 l 6.572787,-8.69377 c 0.262995,-0.32412 0.434331,-0.72289 0.434331,-1.15996 V 408.7251 c 0,-1.04531 -0.848148,-1.89656 -1.897045,-1.89656 -1.042052,0 -1.89259,0.85125 -1.89259,1.89656 v 7.71448 c 0.461003,0.10033 0.895,0.293 1.244857,0.63497 1.006149,0.9837 1.031095,2.59922 0.05096,3.60653 l -3.589239,3.69142 -0.490076,-0.4771 3.59368,-3.68223 c 0.717165,-0.74306 0.701432,-1.93112 -0.03558,-2.65501 -0.227067,-0.21732 -0.505466,-0.37202 -0.794801,-0.45454 -0.307097,-0.089 -0.632339,-0.0934 -0.941841,-0.0288 -0.34747,0.0866 -0.659022,0.26595 -0.903894,0.52333 z"
               id="path4"
               style="stroke-width:1.02672672" />
            <path
               inkscape:connector-curvature="0"
               d="m -98.036872,420.60202 c 2.057095,0 3.798532,-0.74204 5.258849,-2.19021 1.456211,-1.45638 2.181924,-3.20133 2.181924,-5.26555 0,-2.05126 -0.725713,-3.81259 -2.181924,-5.2666 -1.460317,-1.45875 -3.201754,-2.17068 -5.258849,-2.17068 -2.052988,0 -3.813918,0.71193 -5.252348,2.17037 -1.46716,1.45398 -2.18432,3.21565 -2.18432,5.26658 0,2.06455 0.71716,3.80917 2.18432,5.26553 1.43809,1.44852 3.19936,2.19056 5.252348,2.19056 z"
               id="path6"
               style="stroke-width:1.02672672" />
          </g>
          <path
             style="stroke-width:3.5741272"
             inkscape:connector-curvature="0"
             id="path4485"
             d="m 20.623607,297.01171 5.45255,5.46894 -5.45255,5.46893 1.678623,1.68 7.14308,-7.14893 -7.14308,-7.14894 z" />
        </g>
      </g>
    </g>
  </g>
</svg>
