<?xml version="1.0" encoding="UTF-8" standalone="no"?>
<!-- Created with Inkscape (http://www.inkscape.org/) -->

<svg
   xmlns:dc="http://purl.org/dc/elements/1.1/"
   xmlns:cc="http://creativecommons.org/ns#"
   xmlns:rdf="http://www.w3.org/1999/02/22-rdf-syntax-ns#"
   xmlns:svg="http://www.w3.org/2000/svg"
   xmlns="http://www.w3.org/2000/svg"
   xmlns:sodipodi="http://sodipodi.sourceforge.net/DTD/sodipodi-0.dtd"
   xmlns:inkscape="http://www.inkscape.org/namespaces/inkscape"
   width="36"
   height="36"
   viewBox="0 0 9.5249999 9.5250003"
   version="1.1"
   id="svg20037"
   inkscape:version="0.92.4 (5da689c313, 2019-01-14)"
   sodipodi:docname="act_col_fpl-fu_arrow_right_36.svg">
  <defs
     id="defs20031" />
  <sodipodi:namedview
     id="base"
     pagecolor="#ffffff"
     bordercolor="#666666"
     borderopacity="1.0"
     inkscape:pageopacity="0.0"
     inkscape:pageshadow="2"
     inkscape:zoom="15.839192"
     inkscape:cx="1.2171582"
     inkscape:cy="8.5185708"
     inkscape:document-units="px"
     inkscape:current-layer="g851"
     showgrid="false"
     units="px"
     inkscape:window-width="1920"
     inkscape:window-height="1017"
     inkscape:window-x="-8"
     inkscape:window-y="-8"
     inkscape:window-maximized="1"
     showguides="true"
     inkscape:guide-bbox="true">
    <sodipodi:guide
       position="0.26458334,4.0591561"
       orientation="1,0"
       id="guide4579"
       inkscape:locked="false"
       inkscape:label=""
       inkscape:color="rgb(0,0,255)" />
  </sodipodi:namedview>
  <metadata
     id="metadata20034">
    <rdf:RDF>
      <cc:Work
         rdf:about="">
        <dc:format>image/svg+xml</dc:format>
        <dc:type
           rdf:resource="http://purl.org/dc/dcmitype/StillImage" />
        <dc:title></dc:title>
      </cc:Work>
    </rdf:RDF>
  </metadata>
  <g
     inkscape:label="Capa 1"
     inkscape:groupmode="layer"
     id="layer1"
     transform="translate(0,-287.47498)">
    <g
       display="none"
       id="g9991"
       style="display:none;fill:#ff00ff;stroke-width:1"
       transform="matrix(0.26458333,0,0,0.26458333,0,290.64998)">
      <g
         id="g9983"
         style="fill:#ff00ff;stroke-width:1" />
      <g
         id="g9989"
         display="inline"
         style="display:inline;fill:#ff00ff;stroke-width:1">
        <path
           inkscape:connector-curvature="0"
           id="path9985"
           d="m 12,12 c 2.21,0 4,-1.79 4,-4 C 16,5.79 14.21,4 12,4 9.79,4 8,5.79 8,8 c 0,2.21 1.79,4 4,4 z m 0,-6 c 1.1,0 2,0.9 2,2 0,1.1 -0.9,2 -2,2 -1.1,0 -2,-0.9 -2,-2 0,-1.1 0.9,-2 2,-2 z"
           style="fill:#ff00ff;stroke-width:1" />
        <path
           inkscape:connector-curvature="0"
           id="path9987"
           d="m 12,13 c -2.67,0 -8,1.34 -8,4 v 2 c 0,0.55 0.45,1 1,1 h 14 c 0.55,0 1,-0.45 1,-1 v -2 c 0,-2.66 -5.33,-4 -8,-4 z m 6,5 H 6 V 17.01 C 6.2,16.29 9.3,15 12,15 c 2.7,0 5.8,1.29 6,2 z"
           style="fill:#ff00ff;stroke-width:1" />
      </g>
    </g>
    <g
       display="none"
       id="g10001"
       style="display:none;fill:#ff00ff;stroke-width:1"
       transform="matrix(0.26458333,0,0,0.26458333,0,290.64998)">
      <g
         id="g9993"
         style="fill:#ff00ff;stroke-width:1" />
      <g
         id="g9999"
         display="inline"
         style="display:inline;fill:#ff00ff;stroke-width:1">
        <path
           inkscape:connector-curvature="0"
           id="path9995"
           d="m 12,12 c 2.21,0 4,-1.79 4,-4 C 16,5.79 14.21,4 12,4 9.79,4 8,5.79 8,8 c 0,2.21 1.79,4 4,4 z m 0,-6 c 1.1,0 2,0.9 2,2 0,1.1 -0.9,2 -2,2 -1.1,0 -2,-0.9 -2,-2 0,-1.1 0.9,-2 2,-2 z"
           style="fill:#ff00ff;stroke-width:1" />
        <path
           inkscape:connector-curvature="0"
           id="path9997"
           d="m 12,13 c -2.67,0 -8,1.34 -8,4 v 3 h 16 v -3 c 0,-2.66 -5.33,-4 -8,-4 z m 6,5 H 6 V 17.01 C 6.2,16.29 9.3,15 12,15 c 2.7,0 5.8,1.29 6,2 z"
           style="fill:#ff00ff;stroke-width:1" />
      </g>
    </g>
    <g
       display="none"
       id="g10021"
       style="display:none;fill:#ff00ff;stroke-width:1"
       transform="matrix(0.26458333,0,0,0.26458333,0,290.64998)">
      <g
         id="g10009"
         style="fill:#ff00ff;stroke-width:1" />
      <g
         id="g10019"
         display="inline"
         style="display:inline;fill:#ff00ff;stroke-width:1">
        <circle
           id="circle10011"
           r="2"
           cy="8"
           cx="12"
           style="opacity:0.3;fill:#ff00ff;stroke-width:1" />
        <path
           inkscape:connector-curvature="0"
           id="path10013"
           d="M 12,15 C 9.3,15 6.2,16.29 6,17.01 V 18 h 12 v -1 c -0.2,-0.71 -3.3,-2 -6,-2 z"
           style="opacity:0.3;fill:#ff00ff;stroke-width:1" />
        <path
           inkscape:connector-curvature="0"
           id="path10015"
           d="m 12,12 c 2.21,0 4,-1.79 4,-4 C 16,5.79 14.21,4 12,4 9.79,4 8,5.79 8,8 c 0,2.21 1.79,4 4,4 z m 0,-6 c 1.1,0 2,0.9 2,2 0,1.1 -0.9,2 -2,2 -1.1,0 -2,-0.9 -2,-2 0,-1.1 0.9,-2 2,-2 z"
           style="fill:#ff00ff;stroke-width:1" />
        <path
           inkscape:connector-curvature="0"
           id="path10017"
           d="m 12,13 c -2.67,0 -8,1.34 -8,4 v 3 h 16 v -3 c 0,-2.66 -5.33,-4 -8,-4 z m 6,5 H 6 V 17.01 C 6.2,16.29 9.3,15 12,15 c 2.7,0 5.8,1.29 6,2 z"
           style="fill:#ff00ff;stroke-width:1" />
      </g>
    </g>
    <g
       display="none"
       id="g10031"
       style="display:none;fill:#ff00ff;stroke-width:1"
       transform="matrix(0.26458333,0,0,0.26458333,0,290.64998)">
      <g
         id="g10023"
         style="fill:#ff00ff;stroke-width:1" />
      <g
         id="g10029"
         display="inline"
         style="display:inline;fill:#ff00ff;stroke-width:1">
        <path
           inkscape:connector-curvature="0"
           id="path10025"
           d="m 12,12 c 2.21,0 4,-1.79 4,-4 C 16,5.79 14.21,4 12,4 9.79,4 8,5.79 8,8 c 0,2.21 1.79,4 4,4 z m 0,-6 c 1.1,0 2,0.9 2,2 0,1.1 -0.9,2 -2,2 -1.1,0 -2,-0.9 -2,-2 0,-1.1 0.9,-2 2,-2 z"
           style="fill:#ff00ff;stroke-width:1" />
        <path
           inkscape:connector-curvature="0"
           id="path10027"
           d="m 12,13 c -2.67,0 -8,1.34 -8,4 v 3 h 16 v -3 c 0,-2.66 -5.33,-4 -8,-4 z m 6,5 H 6 V 17.01 C 6.2,16.29 9.3,15 12,15 c 2.7,0 5.8,1.29 6,2 z"
           style="fill:#ff00ff;stroke-width:1" />
      </g>
    </g>
    <g
       id="g887"
       transform="matrix(0.5,0,0,0.5,0,148.49999)"
       style="stroke-width:2">
      <g
         style="stroke-width:3.00094557"
         transform="matrix(0.66672935,0,0,0.66618386,-4.4233339,89.142255)"
         id="g851">
        <g
           id="g6011"
           transform="translate(4.762052,-4.7659492)">
          <g
             id="g9981"
             style="fill:none;stroke-width:1"
             transform="matrix(1.1905131,0,0,1.1914879,1.8723247,288.18279)">
            <g
               display="none"
               id="g9977"
               style="display:none;fill:none;stroke-width:1" />
            <path
               inkscape:connector-curvature="0"
               id="path9979"
               d="M 0,0 H 24 V 24 H 0 Z"
               style="fill:none;stroke-width:1" />
          </g>
          <ellipse
             style="opacity:1;fill:#a6cee3;fill-opacity:1;fill-rule:evenodd;stroke:none;stroke-width:0.66696024;stroke-linecap:round;stroke-linejoin:round;stroke-miterlimit:4;stroke-dasharray:none;stroke-dashoffset:0;stroke-opacity:1"
             id="circle12730"
             cx="11.396429"
             cy="302.48065"
             rx="8.3335924"
             ry="8.340416" />
          <g
             transform="matrix(0.05287787,0,0,0.05287787,11.965414,285.11232)"
             id="g901">
            <polygon
               transform="matrix(2.9997179,0,0,3.0021742,-104.88579,234.86636)"
               points=""
               id="polygon4" />
            <path
               d="m 80.916742,341.14333 -5.66947,-0.90066 a 4.3195938,4.3231308 0 0 0 -4.94953,3.57259 c -0.26998,1.74126 -0.59995,3.48252 -0.98991,5.22379 a 82.042286,82.109464 0 0 1 -140.986743,36.98678 l -3.809641,-6.2145 14.608626,3.30239 a 4.3195938,4.3231308 0 0 0 5.159515,-3.27237 l 1.259881,-5.61406 a 4.3195938,4.3231308 0 0 0 -3.269692,-5.16374 l -30.8371,-6.99507 a 4.349591,4.3531526 0 0 0 -3.269692,0.57041 l -3.449676,2.16157 a 4.349591,4.3531526 0 0 0 -1.91982,2.70196 l -6.95935,30.92239 a 4.3195938,4.3231308 0 0 0 3.2697,5.16374 l 5.60947,1.26091 a 4.3195938,4.3231308 0 0 0 5.159515,-3.27237 l 2.999718,-13.29963 4.049619,6.39463 0.41996,0.57042 a 96.410935,96.489878 0 0 0 166.00439,-43.02116 q 0.68994,-3.00217 1.16989,-6.00435 a 4.3195938,4.3231308 0 0 0 -3.59966,-5.07367 z"
               id="path6-0"
               inkscape:connector-curvature="0"
               style="stroke-width:9.00567532" />
            <path
               d="m 61.388582,291.90767 a 4.3195938,4.3231308 0 0 0 5.99943,1.74126 l 5.06952,-2.762 a 4.3195938,4.3231308 0 0 0 1.73984,-6.00435 95.990974,96.069574 0 0 0 -6.71937,-10.68774 4.3195938,4.3231308 0 0 0 -5.99943,-0.96069 l -4.64957,3.39245 a 4.3195938,4.3231308 0 0 0 -0.95991,6.00435 82.462246,82.529768 0 0 1 5.51949,9.27672 z"
               id="path8"
               inkscape:connector-curvature="0"
               style="stroke-width:9.00567532" />
            <path
               d="m -35.022357,247.8958 a 4.3195938,4.3231308 0 0 0 5.129517,3.1823 81.832306,81.899312 0 0 1 10.589005,-1.8013 4.3195938,4.3231308 0 0 0 3.839639,-4.74344 l -0.599944,-5.73415 a 4.3195938,4.3231308 0 0 0 -4.67956,-3.93285 95.241045,95.319031 0 0 0 -12.44883,2.22161 4.3195938,4.3231308 0 0 0 -3.179701,5.22378 z"
               id="path10"
               inkscape:connector-curvature="0"
               style="stroke-width:9.00567532" />
            <polygon
               transform="matrix(2.9997179,0,0,3.0021742,-104.88579,234.86636)"
               points=""
               id="polygon12" />
            <path
               d="m 2.174142,249.87723 q 2.60976,0.42031 5.18952,0.99072 v 0 c 1.76983,0.39028 3.56966,0.87063 5.2795,1.381 a 4.3195938,4.3231308 0 0 0 5.36949,-3.00217 l 1.61985,-5.3739 a 4.3195938,4.3231308 0 0 0 -2.99972,-5.37389 c -1.94981,-0.63045 -4.01962,-1.23089 -6.08942,-1.68122 -2.06981,-0.45032 -4.07962,-0.8406 -5.99944,-1.17084 a 4.3195938,4.3231308 0 0 0 -4.94953,3.57258 l -0.89992,5.70413 a 4.3195938,4.3231308 0 0 0 3.47967,4.95359 z"
               id="path14"
               inkscape:connector-curvature="0"
               style="stroke-width:9.00567532" />
            <path
               d="m -91.507045,286.38367 4.919537,3.00217 a 4.3195938,4.3231308 0 0 0 5.999436,-1.41102 82.31226,82.37966 0 0 1 6.209415,-8.76635 4.3195938,4.3231308 0 0 0 -0.62994,-6.00434 l -4.559571,-3.69268 a 4.3195938,4.3231308 0 0 0 -5.999436,0.63046 96.14096,96.219683 0 0 0 -7.319312,10.32748 4.3195938,4.3231308 0 0 0 1.379871,5.91428 z"
               id="path16"
               inkscape:connector-curvature="0"
               style="stroke-width:9.00567532" />
            <path
               d="m -64.929545,263.53712 a 4.3195938,4.3231308 0 0 0 5.999435,0.9607 83.692131,83.76066 0 0 1 8.999154,-5.73415 4.3195938,4.3231308 0 0 0 1.739837,-6.00435 l -2.699746,-4.92357 a 4.3195938,4.3231308 0 0 0 -5.999436,-1.74126 97.400842,97.480596 0 0 0 -10.469016,6.78492 4.3195938,4.3231308 0 0 0 -0.95991,6.00434 z"
               id="path18"
               inkscape:connector-curvature="0"
               style="stroke-width:9.00567532" />
            <path
               d="m 32.201322,260.95525 a 82.492243,82.55979 0 0 1 8.75918,6.2145 4.3195938,4.3231308 0 0 0 5.99943,-0.63045 l 3.62966,-4.47324 a 4.3195938,4.3231308 0 0 0 -0.62994,-6.00435 95.990974,96.069574 0 0 0 -10.22904,-7.38535 4.3195938,4.3231308 0 0 0 -5.99943,1.41102 l -2.99972,4.92357 a 4.3195938,4.3231308 0 0 0 1.46986,5.9443 z"
               id="path20"
               inkscape:connector-curvature="0"
               style="stroke-width:9.00567532" />
            <path
               d="m 69.097852,311.81209 a 82.252266,82.319616 0 0 1 1.82983,10.59767 4.3195938,4.3231308 0 0 0 4.73955,3.84278 l 5.72946,-0.60043 a 4.3195938,4.3231308 0 0 0 3.83964,-4.74344 96.620915,96.700031 0 0 0 -2.1298,-12.45902 4.3195938,4.3231308 0 0 0 -5.21951,-3.1823 l -5.60947,1.35097 a 4.3195938,4.3231308 0 0 0 -3.1797,5.19377 z"
               id="path22"
               inkscape:connector-curvature="0"
               style="stroke-width:9.00567532" />
            <path
               d="m -101.5261,314.84428 5.639466,1.26091 a 4.3195938,4.3231308 0 0 0 5.159515,-3.1823 c 0.389964,-1.74126 0.839921,-3.4525 1.319876,-5.13372 a 4.3195938,4.3231308 0 0 0 -2.999718,-5.37389 l -5.519481,-1.62117 a 4.3195938,4.3231308 0 0 0 -5.369498,3.00217 q -0.86992,3.00217 -1.55985,6.00435 a 4.3195938,4.3231308 0 0 0 3.32969,5.04365 z"
               id="path24"
               inkscape:connector-curvature="0"
               style="stroke-width:9.00567532" />
          </g>
          <path
             style="stroke-width:3.5741272"
             inkscape:connector-curvature="0"
             id="path4485"
             d="m 20.623607,297.01171 5.45255,5.46894 -5.45255,5.46893 1.678623,1.68 7.14308,-7.14893 -7.14308,-7.14894 z" />
        </g>
      </g>
    </g>
  </g>
</svg>
