<svg width="20" height="20" viewBox="0 0 20 20" fill="none" xmlns="http://www.w3.org/2000/svg">
<path d="M18.7314 10.5638C18.7204 10.7312 18.7046 10.8993 18.6838 11.068C18.6412 11.4146 18.579 11.7534 18.4985 12.0836L18.4996 12.0838C18.0682 13.8494 17.101 15.4049 15.7801 16.5682C15.3934 16.9082 14.9773 17.214 14.5368 17.4816L14.5372 17.4823C14.1474 17.7192 13.7377 17.9265 13.311 18.101L13.3108 18.1006C13.1168 18.1801 12.9195 18.2528 12.7194 18.3184C11.8634 18.598 10.9494 18.7493 9.99998 18.7493C9.81573 18.7493 9.63281 18.7436 9.45139 18.7323C9.27904 18.7213 9.10585 18.7052 8.93197 18.6838C8.58544 18.6412 8.24663 18.579 7.91644 18.4985L7.91618 18.4996C6.23853 18.0897 4.75057 17.1961 3.60851 15.9749L5.83369 13.7497H0.834123V18.7493L2.72412 16.8593C2.78102 16.9197 2.83868 16.9794 2.89709 17.0384C3.26537 17.4101 3.66288 17.7527 4.08542 18.0631L4.08477 18.064C4.69528 18.5127 5.36074 18.8947 6.07167 19.198C7.10201 19.6386 8.22136 19.9111 9.39525 19.9812C9.58262 19.9927 9.76924 19.9989 9.95495 20L9.95496 19.9991C9.96996 19.9991 9.98497 19.9991 9.99998 19.9991C10.5167 19.9991 11.0242 19.96 11.5197 19.8844L11.5199 19.8855C11.9381 19.8215 12.3489 19.7312 12.7503 19.6161C14.2026 19.2016 15.5199 18.4669 16.6209 17.4932C16.7637 17.3672 16.9029 17.237 17.0384 17.1029L17.0382 17.1026C17.4098 16.7343 17.7527 16.3371 18.0631 15.9146L18.064 15.9152C18.5192 15.2959 18.9058 14.62 19.2111 13.8975C19.6421 12.88 19.9095 11.7765 19.9802 10.6197C19.9924 10.4273 19.9989 10.2357 20 10.0451L19.999 10.045C19.9991 10.03 19.9991 10.015 19.9991 10H18.7492C18.7492 10.1894 18.7432 10.3774 18.7314 10.5638Z" fill="#333333" fill-opacity="1"/>
<path d="M0.075642 8.7794C0.0270757 9.17427 0.00223397 9.5666 0 9.95495L1.24987 9.96214C1.25183 9.62229 1.27357 9.27851 1.31619 8.93197C1.35881 8.58544 1.42102 8.24663 1.50147 7.91644L0.287109 7.62055C0.195174 7.99786 0.124208 8.38452 0.075642 8.7794Z" fill="#333333" fill-opacity="1"/>
<path d="M0.777382 6.12996C1.08446 5.39709 1.47504 4.71194 1.93597 4.08477L2.94312 4.82496C2.53993 5.37357 2.19852 5.97255 1.93017 6.61299L0.777382 6.12996Z" fill="#333333" fill-opacity="1"/>
<path d="M2.96156 2.89709C3.52029 2.34417 4.14247 1.85827 4.8143 1.45017L5.4632 2.51842C4.87489 2.87578 4.33 3.30133 3.84073 3.7855L2.96156 2.89709Z" fill="#333333" fill-opacity="1"/>
<path d="M6.2151 0.742948C6.93527 0.447725 7.69465 0.234806 8.48009 0.114468L8.66938 1.34994C7.983 1.4551 7.31914 1.6412 6.68919 1.89944L6.2151 0.742948Z" fill="#333333" fill-opacity="1"/>
<path d="M10.0451 0C10.4334 0.00223398 10.8257 0.0270757 11.2206 0.075642C11.6155 0.124208 12.0021 0.195174 12.3795 0.28711L12.0836 1.50147C11.7534 1.42102 11.4146 1.35881 11.068 1.31619C10.7215 1.27357 10.3777 1.25183 10.0379 1.24987L10.0451 0Z" fill="#333333" fill-opacity="1"/>
<path d="M13.87 0.777382C14.6029 1.08446 15.2881 1.47504 15.9152 1.93597L15.175 2.94312C14.6264 2.53993 14.0275 2.19852 13.387 1.93017L13.87 0.777382Z" fill="#333333" fill-opacity="1"/>
<path d="M17.1029 2.96156C17.6558 3.52029 18.1417 4.14247 18.5498 4.8143L17.4816 5.4632C17.1242 4.87489 16.6987 4.33 16.2145 3.84073L17.1029 2.96156Z" fill="#333333" fill-opacity="1"/>
<path d="M19.2571 6.2151C19.5523 6.93527 19.7652 7.69465 19.8855 8.48009L18.6501 8.66938C18.5449 7.983 18.3588 7.31914 18.1006 6.68919L19.2571 6.2151Z" fill="#333333" fill-opacity="1"/>
</svg>
