<svg width="48" height="48" viewBox="0 0 48 48" fill="none" xmlns="http://www.w3.org/2000/svg">
<g clip-path="url(#clip0)">
<path d="M27 48H8.00003C6.94946 48 5.90916 47.7931 4.93856 47.391C3.96795 46.989 3.08602 46.3997 2.34315 45.6569C1.60028 44.914 1.01101 44.0321 0.60897 43.0615C0.206933 42.0909 -6.07372e-10 41.0506 0 40V0H40C41.0506 -6.07306e-10 42.0909 0.206933 43.0615 0.60897C44.0321 1.01101 44.914 1.60028 45.6569 2.34315C46.3997 3.08602 46.989 3.96792 47.391 4.93852C47.7931 5.90913 48 6.94942 48 8V27C48 32.5696 45.7875 37.911 41.8493 41.8493C37.911 45.7875 32.5696 48 27 48V48Z" fill="#EFEFEF"/>
<path d="M31.9523 10.2374C33.7565 8.44882 33.7692 5.53629 31.9807 3.73205C30.1921 1.92782 27.2796 1.91511 25.4753 3.70367C23.6711 5.49223 23.6584 8.40476 25.447 10.209C27.2355 12.0132 30.1481 12.0259 31.9523 10.2374Z" fill="#709302"/>
<path d="M16.0841 15.9522C17.8884 14.1637 17.9011 11.2511 16.1125 9.4469C14.324 7.64267 11.4114 7.62996 9.60719 9.41851C7.80295 11.2071 7.79024 14.1196 9.5788 15.9238C11.3674 17.7281 14.2799 17.7408 16.0841 15.9522Z" fill="#E28C05"/>
<path d="M10.1676 32.0228C11.9719 30.2342 11.9846 27.3217 10.196 25.5175C8.40745 23.7132 5.49491 23.7005 3.69068 25.4891C1.88645 27.2776 1.87374 30.1902 3.6623 31.9944C5.45085 33.7986 8.36338 33.8113 10.1676 32.0228Z" fill="#00B5E1"/>
<circle cx="13" cy="13" r="5" fill="#E28C05" fill-opacity="0.1"/>
<path fill-rule="evenodd" clip-rule="evenodd" d="M42.6403 14.9048C40.9406 12.3557 38.678 10.2311 36.0271 8.69507L34.0217 12.156C36.1424 13.3849 37.9525 15.0845 39.3122 17.1238C40.6719 19.1631 41.545 21.4875 41.8639 23.9177C42.1829 26.3479 41.9393 28.8188 41.1519 31.1399C40.3645 33.461 39.0544 35.5702 37.3226 37.3047C35.5908 39.0392 33.4837 40.3527 31.1638 41.1437C28.844 41.9347 26.3734 42.1822 23.9427 41.8671C21.512 41.5519 19.1862 40.6825 17.1448 39.326C15.1034 37.9695 13.4009 36.1621 12.1688 34.0433L8.71094 36.0541C10.2511 38.7026 12.3792 40.9619 14.931 42.6575C17.4828 44.3532 20.39 45.4399 23.4283 45.8339C26.4667 46.2278 29.5549 45.9185 32.4548 44.9296C35.3546 43.9408 37.9885 42.299 40.1532 40.1309C42.318 37.9628 43.9556 35.3263 44.9399 32.425C45.9241 29.5236 46.2286 26.4348 45.8299 23.3971C45.4312 20.3594 44.3399 17.4539 42.6403 14.9048Z" fill="#709302"/>
<path fill-rule="evenodd" clip-rule="evenodd" d="M26 38C32.6274 38 38 32.6274 38 26C38 19.3726 32.6274 14 26 14C19.3726 14 14 19.3726 14 26C14 32.6274 19.3726 38 26 38ZM26 34C30.4183 34 34 30.4183 34 26C34 21.5817 30.4183 18 26 18C21.5817 18 18 21.5817 18 26C18 30.4183 21.5817 34 26 34Z" fill="#E28C05"/>
</g>
<defs>
<clipPath id="clip0">
<rect width="48" height="48" fill="white"/>
</clipPath>
</defs>
</svg>
