<svg width="16" height="20" viewBox="0 0 16 20" fill="none" xmlns="http://www.w3.org/2000/svg">
<path d="M12.6316 0.555556H3.36842C1.81815 0.555556 0.561404 1.79921 0.561404 3.33333V6.94444C0.561404 7.09786 0.435729 7.22222 0.280702 7.22222C0.125674 7.22222 0 7.09786 0 6.94444V3.33333C0 1.49238 1.50809 0 3.36842 0H12.6316C14.4919 0 16 1.49238 16 3.33333V16.6667C16 18.5076 14.4919 20 12.6316 20H3.36842C1.50809 20 0 18.5076 0 16.6667V8.05556C0 7.90214 0.125674 7.77778 0.280702 7.77778C0.435729 7.77778 0.561404 7.90214 0.561404 8.05556V16.6667C0.561404 18.2008 1.81815 19.4444 3.36842 19.4444H12.6316C14.1819 19.4444 15.4386 18.2008 15.4386 16.6667V3.33333C15.4386 1.79921 14.1819 0.555556 12.6316 0.555556Z" fill="#333333" fill-opacity="1"/>
<path d="M5.89474 1.66667C5.89474 1.78173 5.80048 1.875 5.68421 1.875C5.56794 1.875 5.47368 1.78173 5.47368 1.66667C5.47368 1.55161 5.56794 1.45833 5.68421 1.45833C5.80048 1.45833 5.89474 1.55161 5.89474 1.66667Z" fill="#333333" fill-opacity="1"/>
<path fill-rule="evenodd" clip-rule="evenodd" d="M4.21053 6.66667C5.37323 6.66667 6.31579 5.73393 6.31579 4.58333C6.31579 3.43274 5.37323 2.5 4.21053 2.5C3.04782 2.5 2.10526 3.43274 2.10526 4.58333C2.10526 5.73393 3.04782 6.66667 4.21053 6.66667ZM4.21053 6.11111C5.06318 6.11111 5.75439 5.4271 5.75439 4.58333C5.75439 4.20548 5.61577 3.85967 5.38613 3.59298L3.20974 5.74669C3.47925 5.97394 3.8287 6.11111 4.21053 6.11111ZM5.07154 3.31503L2.92887 5.43538C2.7633 5.19197 2.66667 4.89882 2.66667 4.58333C2.66667 3.73957 3.35788 3.05556 4.21053 3.05556C4.52933 3.05556 4.82557 3.15118 5.07154 3.31503Z" fill="#333333" fill-opacity="1"/>
<path fill-rule="evenodd" clip-rule="evenodd" d="M11.7895 6.66667C12.9522 6.66667 13.8947 5.73393 13.8947 4.58333C13.8947 3.43274 12.9522 2.5 11.7895 2.5C10.6268 2.5 9.68421 3.43274 9.68421 4.58333C9.68421 5.73393 10.6268 6.66667 11.7895 6.66667ZM11.7895 6.11111C12.6421 6.11111 13.3333 5.4271 13.3333 4.58333C13.3333 4.20548 13.1947 3.85967 12.9651 3.59298L10.7887 5.74669C11.0582 5.97394 11.4076 6.11111 11.7895 6.11111ZM12.6505 3.31503L10.5078 5.43538C10.3422 5.19197 10.2456 4.89882 10.2456 4.58333C10.2456 3.73957 10.9368 3.05556 11.7895 3.05556C12.1083 3.05556 12.4045 3.15118 12.6505 3.31503Z" fill="#333333" fill-opacity="1"/>
<path fill-rule="evenodd" clip-rule="evenodd" d="M6.31579 10C6.31579 11.1506 5.37323 12.0833 4.21053 12.0833C3.04782 12.0833 2.10526 11.1506 2.10526 10C2.10526 8.84941 3.04782 7.91667 4.21053 7.91667C5.37323 7.91667 6.31579 8.84941 6.31579 10ZM5.75439 10C5.75439 10.8438 5.06318 11.5278 4.21053 11.5278C3.8287 11.5278 3.47925 11.3906 3.20974 11.1634L5.38613 9.00964C5.61577 9.27634 5.75439 9.62215 5.75439 10ZM2.92887 10.852L5.07154 8.73169C4.82557 8.56785 4.52933 8.47222 4.21053 8.47222C3.35788 8.47222 2.66667 9.15623 2.66667 10C2.66667 10.3155 2.7633 10.6086 2.92887 10.852Z" fill="#333333" fill-opacity="1"/>
<path fill-rule="evenodd" clip-rule="evenodd" d="M11.7895 12.0833C12.9522 12.0833 13.8947 11.1506 13.8947 10C13.8947 8.84941 12.9522 7.91667 11.7895 7.91667C10.6268 7.91667 9.68421 8.84941 9.68421 10C9.68421 11.1506 10.6268 12.0833 11.7895 12.0833ZM11.7895 11.5278C12.6421 11.5278 13.3333 10.8438 13.3333 10C13.3333 9.62215 13.1947 9.27634 12.9651 9.00964L10.7887 11.1634C11.0582 11.3906 11.4076 11.5278 11.7895 11.5278ZM12.6505 8.73169L10.5078 10.852C10.3422 10.6086 10.2456 10.3155 10.2456 10C10.2456 9.15623 10.9368 8.47222 11.7895 8.47222C12.1083 8.47222 12.4045 8.56785 12.6505 8.73169Z" fill="#333333" fill-opacity="1"/>
<path fill-rule="evenodd" clip-rule="evenodd" d="M6.31579 15.4167C6.31579 16.5673 5.37323 17.5 4.21053 17.5C3.04782 17.5 2.10526 16.5673 2.10526 15.4167C2.10526 14.2661 3.04782 13.3333 4.21053 13.3333C5.37323 13.3333 6.31579 14.2661 6.31579 15.4167ZM5.75439 15.4167C5.75439 16.2604 5.06318 16.9444 4.21053 16.9444C3.8287 16.9444 3.47925 16.8073 3.20974 16.58L5.38613 14.4263C5.61577 14.693 5.75439 15.0388 5.75439 15.4167ZM2.92887 16.2687L5.07154 14.1484C4.82557 13.9845 4.52933 13.8889 4.21053 13.8889C3.35788 13.8889 2.66667 14.5729 2.66667 15.4167C2.66667 15.7322 2.7633 16.0253 2.92887 16.2687Z" fill="#333333" fill-opacity="1"/>
<path fill-rule="evenodd" clip-rule="evenodd" d="M11.7895 17.5C12.9522 17.5 13.8947 16.5673 13.8947 15.4167C13.8947 14.2661 12.9522 13.3333 11.7895 13.3333C10.6268 13.3333 9.68421 14.2661 9.68421 15.4167C9.68421 16.5673 10.6268 17.5 11.7895 17.5ZM11.7895 16.9444C12.6421 16.9444 13.3333 16.2604 13.3333 15.4167C13.3333 15.0388 13.1947 14.693 12.9651 14.4263L10.7887 16.58C11.0582 16.8073 11.4076 16.9444 11.7895 16.9444ZM12.6505 14.1484L10.5078 16.2687C10.3422 16.0253 10.2456 15.7322 10.2456 15.4167C10.2456 14.5729 10.9368 13.8889 11.7895 13.8889C12.1083 13.8889 12.4045 13.9845 12.6505 14.1484Z" fill="#333333" fill-opacity="1"/>
<path d="M10.3158 1.875C10.4321 1.875 10.5263 1.78173 10.5263 1.66667C10.5263 1.55161 10.4321 1.45833 10.3158 1.45833C10.1995 1.45833 10.1053 1.55161 10.1053 1.66667C10.1053 1.78173 10.1995 1.875 10.3158 1.875Z" fill="#333333" fill-opacity="1"/>
<path d="M7.15789 1.66667C7.15789 1.55161 7.25215 1.45833 7.36842 1.45833H8.63158C8.74785 1.45833 8.8421 1.55161 8.8421 1.66667C8.8421 1.78173 8.74785 1.875 8.63158 1.875H7.36842C7.25215 1.875 7.15789 1.78173 7.15789 1.66667Z" fill="#333333" fill-opacity="1"/>
</svg>
