<svg width="24" height="24" viewBox="0 0 24 24" fill="none" xmlns="http://www.w3.org/2000/svg">
<path d="M11.7576 4.24242V1.33333L7.87879 5.21212L11.7576 9.0909V6.18181C14.9673 6.18181 17.5758 8.7903 17.5758 12C17.5758 12.9794 17.3333 13.9103 16.897 14.7151L18.3127 16.1309C19.0691 14.9382 19.5152 13.5224 19.5152 12C19.5152 7.71393 16.0436 4.24242 11.7576 4.24242ZM11.7576 17.8182C8.54788 17.8182 5.93939 15.2097 5.93939 12C5.93939 11.0206 6.18182 10.0897 6.61818 9.28484L5.20242 7.86909C4.44606 9.06181 4 10.4776 4 12C4 16.2861 7.47152 19.7576 11.7576 19.7576V22.6667L15.6364 18.7879L11.7576 14.9091V17.8182Z" fill="#BDBDBD"/>
</svg>
