<?xml version="1.0" encoding="UTF-8" standalone="no"?>
<!-- Created with Inkscape (http://www.inkscape.org/) -->

<svg
   xmlns:dc="http://purl.org/dc/elements/1.1/"
   xmlns:cc="http://creativecommons.org/ns#"
   xmlns:rdf="http://www.w3.org/1999/02/22-rdf-syntax-ns#"
   xmlns:svg="http://www.w3.org/2000/svg"
   xmlns="http://www.w3.org/2000/svg"
   xmlns:sodipodi="http://sodipodi.sourceforge.net/DTD/sodipodi-0.dtd"
   xmlns:inkscape="http://www.inkscape.org/namespaces/inkscape"
   width="24"
   height="24"
   viewBox="0 0 6.3499999 6.3500002"
   version="1.1"
   id="svg20037"
   inkscape:version="0.92.4 (5da689c313, 2019-01-14)"
   sodipodi:docname="act_col_fpl-sp_arrow_right.svg">
  <defs
     id="defs20031" />
  <sodipodi:namedview
     id="base"
     pagecolor="#ffffff"
     bordercolor="#666666"
     borderopacity="1.0"
     inkscape:pageopacity="0.0"
     inkscape:pageshadow="2"
     inkscape:zoom="22.4"
     inkscape:cx="9.2290949"
     inkscape:cy="14.012932"
     inkscape:document-units="px"
     inkscape:current-layer="g851"
     showgrid="false"
     units="px"
     inkscape:window-width="1920"
     inkscape:window-height="1017"
     inkscape:window-x="-8"
     inkscape:window-y="-8"
     inkscape:window-maximized="1"
     showguides="true"
     inkscape:guide-bbox="true">
    <sodipodi:guide
       position="0.26458334,4.0591561"
       orientation="1,0"
       id="guide4579"
       inkscape:locked="false"
       inkscape:label=""
       inkscape:color="rgb(0,0,255)" />
  </sodipodi:namedview>
  <metadata
     id="metadata20034">
    <rdf:RDF>
      <cc:Work
         rdf:about="">
        <dc:format>image/svg+xml</dc:format>
        <dc:type
           rdf:resource="http://purl.org/dc/dcmitype/StillImage" />
        <dc:title></dc:title>
      </cc:Work>
    </rdf:RDF>
  </metadata>
  <g
     inkscape:label="Capa 1"
     inkscape:groupmode="layer"
     id="layer1"
     transform="translate(0,-290.64998)">
    <g
       display="none"
       id="g9991"
       style="display:none;fill:#ff00ff;stroke-width:1"
       transform="matrix(0.26458333,0,0,0.26458333,0,290.64998)">
      <g
         id="g9983"
         style="fill:#ff00ff;stroke-width:1" />
      <g
         id="g9989"
         display="inline"
         style="display:inline;fill:#ff00ff;stroke-width:1">
        <path
           inkscape:connector-curvature="0"
           id="path9985"
           d="m 12,12 c 2.21,0 4,-1.79 4,-4 C 16,5.79 14.21,4 12,4 9.79,4 8,5.79 8,8 c 0,2.21 1.79,4 4,4 z m 0,-6 c 1.1,0 2,0.9 2,2 0,1.1 -0.9,2 -2,2 -1.1,0 -2,-0.9 -2,-2 0,-1.1 0.9,-2 2,-2 z"
           style="fill:#ff00ff;stroke-width:1" />
        <path
           inkscape:connector-curvature="0"
           id="path9987"
           d="m 12,13 c -2.67,0 -8,1.34 -8,4 v 2 c 0,0.55 0.45,1 1,1 h 14 c 0.55,0 1,-0.45 1,-1 v -2 c 0,-2.66 -5.33,-4 -8,-4 z m 6,5 H 6 V 17.01 C 6.2,16.29 9.3,15 12,15 c 2.7,0 5.8,1.29 6,2 z"
           style="fill:#ff00ff;stroke-width:1" />
      </g>
    </g>
    <g
       display="none"
       id="g10001"
       style="display:none;fill:#ff00ff;stroke-width:1"
       transform="matrix(0.26458333,0,0,0.26458333,0,290.64998)">
      <g
         id="g9993"
         style="fill:#ff00ff;stroke-width:1" />
      <g
         id="g9999"
         display="inline"
         style="display:inline;fill:#ff00ff;stroke-width:1">
        <path
           inkscape:connector-curvature="0"
           id="path9995"
           d="m 12,12 c 2.21,0 4,-1.79 4,-4 C 16,5.79 14.21,4 12,4 9.79,4 8,5.79 8,8 c 0,2.21 1.79,4 4,4 z m 0,-6 c 1.1,0 2,0.9 2,2 0,1.1 -0.9,2 -2,2 -1.1,0 -2,-0.9 -2,-2 0,-1.1 0.9,-2 2,-2 z"
           style="fill:#ff00ff;stroke-width:1" />
        <path
           inkscape:connector-curvature="0"
           id="path9997"
           d="m 12,13 c -2.67,0 -8,1.34 -8,4 v 3 h 16 v -3 c 0,-2.66 -5.33,-4 -8,-4 z m 6,5 H 6 V 17.01 C 6.2,16.29 9.3,15 12,15 c 2.7,0 5.8,1.29 6,2 z"
           style="fill:#ff00ff;stroke-width:1" />
      </g>
    </g>
    <g
       display="none"
       id="g10021"
       style="display:none;fill:#ff00ff;stroke-width:1"
       transform="matrix(0.26458333,0,0,0.26458333,0,290.64998)">
      <g
         id="g10009"
         style="fill:#ff00ff;stroke-width:1" />
      <g
         id="g10019"
         display="inline"
         style="display:inline;fill:#ff00ff;stroke-width:1">
        <circle
           id="circle10011"
           r="2"
           cy="8"
           cx="12"
           style="opacity:0.3;fill:#ff00ff;stroke-width:1" />
        <path
           inkscape:connector-curvature="0"
           id="path10013"
           d="M 12,15 C 9.3,15 6.2,16.29 6,17.01 V 18 h 12 v -1 c -0.2,-0.71 -3.3,-2 -6,-2 z"
           style="opacity:0.3;fill:#ff00ff;stroke-width:1" />
        <path
           inkscape:connector-curvature="0"
           id="path10015"
           d="m 12,12 c 2.21,0 4,-1.79 4,-4 C 16,5.79 14.21,4 12,4 9.79,4 8,5.79 8,8 c 0,2.21 1.79,4 4,4 z m 0,-6 c 1.1,0 2,0.9 2,2 0,1.1 -0.9,2 -2,2 -1.1,0 -2,-0.9 -2,-2 0,-1.1 0.9,-2 2,-2 z"
           style="fill:#ff00ff;stroke-width:1" />
        <path
           inkscape:connector-curvature="0"
           id="path10017"
           d="m 12,13 c -2.67,0 -8,1.34 -8,4 v 3 h 16 v -3 c 0,-2.66 -5.33,-4 -8,-4 z m 6,5 H 6 V 17.01 C 6.2,16.29 9.3,15 12,15 c 2.7,0 5.8,1.29 6,2 z"
           style="fill:#ff00ff;stroke-width:1" />
      </g>
    </g>
    <g
       display="none"
       id="g10031"
       style="display:none;fill:#ff00ff;stroke-width:1"
       transform="matrix(0.26458333,0,0,0.26458333,0,290.64998)">
      <g
         id="g10023"
         style="fill:#ff00ff;stroke-width:1" />
      <g
         id="g10029"
         display="inline"
         style="display:inline;fill:#ff00ff;stroke-width:1">
        <path
           inkscape:connector-curvature="0"
           id="path10025"
           d="m 12,12 c 2.21,0 4,-1.79 4,-4 C 16,5.79 14.21,4 12,4 9.79,4 8,5.79 8,8 c 0,2.21 1.79,4 4,4 z m 0,-6 c 1.1,0 2,0.9 2,2 0,1.1 -0.9,2 -2,2 -1.1,0 -2,-0.9 -2,-2 0,-1.1 0.9,-2 2,-2 z"
           style="fill:#ff00ff;stroke-width:1" />
        <path
           inkscape:connector-curvature="0"
           id="path10027"
           d="m 12,13 c -2.67,0 -8,1.34 -8,4 v 3 h 16 v -3 c 0,-2.66 -5.33,-4 -8,-4 z m 6,5 H 6 V 17.01 C 6.2,16.29 9.3,15 12,15 c 2.7,0 5.8,1.29 6,2 z"
           style="fill:#ff00ff;stroke-width:1" />
      </g>
    </g>
    <g
       id="g887"
       transform="matrix(0.5,0,0,0.5,0,148.49999)"
       style="stroke-width:2">
      <g
         transform="matrix(0.52916667,0,0,0.52916667,0,284.29998)"
         style="fill:none;stroke-width:1"
         id="g9981">
        <g
           style="display:none;fill:none;stroke-width:1"
           id="g9977"
           display="none" />
        <path
           style="fill:none;stroke-width:1"
           d="M 0,0 H 24 V 24 H 0 Z"
           id="path9979"
           inkscape:connector-curvature="0" />
      </g>
      <g
         style="stroke-width:3.00094557"
         transform="matrix(0.66672935,0,0,0.66618386,-4.4233339,89.142255)"
         id="g851">
        <ellipse
           ry="5.5602765"
           rx="5.555728"
           cy="302.48065"
           cx="12.983781"
           id="circle12730-9"
           style="opacity:1;fill:#b2df8a;fill-opacity:1;fill-rule:evenodd;stroke:none;stroke-width:0.44464013;stroke-linecap:round;stroke-linejoin:round;stroke-miterlimit:4;stroke-dasharray:none;stroke-dashoffset:0;stroke-opacity:1" />
        <g
           style="stroke-width:3.00094557"
           id="g1051"
           transform="matrix(0.03181819,0,0,0.03181817,30.844885,271.10433)">
          <g
             id="g6"
             transform="matrix(0.43824023,0,0,0.43859891,-670.81122,873.83189)">
            <g
               id="g4">
              <path
                 id="path2"
                 d="m 463.999,354.915 c -4.142,0 -7.5,3.358 -7.5,7.5 v 90.603 c 0,24.252 -19.73,43.982 -43.982,43.982 H 99.482 C 75.23,497 55.5,477.27 55.5,453.018 V 221.415 c 0,-4.142 -3.358,-7.5 -7.5,-7.5 -4.142,0 -7.5,3.358 -7.5,7.5 V 453.018 C 40.5,485.541 66.959,512 99.482,512 h 313.035 c 32.523,0 58.982,-26.459 58.982,-58.982 v -90.603 c 0,-4.142 -3.358,-7.5 -7.5,-7.5 z"
                 inkscape:connector-curvature="0" />
            </g>
          </g>
          <g
             id="g12"
             transform="matrix(0.43824023,0,0,0.43859891,-670.81122,873.83189)">
            <g
               id="g10">
              <path
                 id="path8-7"
                 d="M 412.518,0 H 99.482 C 66.959,0 40.5,26.459 40.5,58.982 v 132.433 c 0,4.142 3.358,7.5 7.5,7.5 4.142,0 7.5,-3.358 7.5,-7.5 V 58.982 C 55.5,34.73 75.23,15 99.482,15 H 412.517 C 436.77,15 456.5,34.73 456.5,58.982 v 273.433 c 0,4.142 3.358,7.5 7.5,7.5 4.142,0 7.5,-3.358 7.5,-7.5 V 58.982 C 471.5,26.459 445.041,0 412.518,0 Z"
                 inkscape:connector-curvature="0" />
            </g>
          </g>
          <g
             id="g18"
             transform="matrix(0.43824023,0,0,0.43859891,-670.81122,873.83189)">
            <g
               id="g16">
              <path
                 id="path14-1"
                 d="m 158.02,87.5 c -30.051,0 -54.5,24.449 -54.5,54.5 0,30.052 24.449,54.5 54.5,54.5 30.051,0 54.5,-24.448 54.5,-54.5 0,-30.051 -24.449,-54.5 -54.5,-54.5 z m -39.5,54.5 c 0,-21.78 17.719,-39.5 39.5,-39.5 8.185,0 15.796,2.504 22.11,6.784 l -54.826,54.826 c -4.28,-6.313 -6.784,-13.924 -6.784,-22.11 z m 39.5,39.5 c -8.185,0 -15.796,-2.503 -22.11,-6.784 l 54.826,-54.826 c 4.28,6.313 6.784,13.924 6.784,22.109 0,21.782 -17.72,39.501 -39.5,39.501 z"
                 inkscape:connector-curvature="0" />
            </g>
          </g>
          <g
             id="g24"
             transform="matrix(0.43824023,0,0,0.43859891,-670.81122,873.83189)">
            <g
               id="g22">
              <path
                 id="path20-8"
                 d="m 353.981,87.5 c -30.051,0 -54.5,24.449 -54.5,54.5 0,30.052 24.449,54.5 54.5,54.5 30.051,0 54.5,-24.448 54.5,-54.5 0,-30.051 -24.449,-54.5 -54.5,-54.5 z m -39.5,54.5 c 0,-21.78 17.72,-39.5 39.5,-39.5 8.185,0 15.796,2.504 22.11,6.784 l -54.826,54.826 c -4.28,-6.313 -6.784,-13.924 -6.784,-22.11 z m 39.5,39.5 c -8.185,0 -15.796,-2.503 -22.11,-6.784 l 54.826,-54.826 c 4.28,6.313 6.784,13.924 6.784,22.109 0,21.782 -17.72,39.501 -39.5,39.501 z"
                 inkscape:connector-curvature="0" />
            </g>
          </g>
          <g
             id="g30"
             transform="matrix(0.43824023,0,0,0.43859891,-670.81122,873.83189)">
            <g
               id="g28">
              <path
                 id="path26"
                 d="m 158.02,221.5 c -30.051,0 -54.5,24.449 -54.5,54.5 0,30.052 24.449,54.5 54.5,54.5 30.051,0 54.5,-24.448 54.5,-54.5 0,-30.051 -24.449,-54.5 -54.5,-54.5 z m -39.5,54.5 c 0,-21.78 17.719,-39.5 39.5,-39.5 8.185,0 15.796,2.504 22.11,6.784 l -54.826,54.826 c -4.28,-6.313 -6.784,-13.924 -6.784,-22.11 z m 39.5,39.5 c -8.185,0 -15.796,-2.503 -22.11,-6.784 l 54.826,-54.826 c 4.28,6.313 6.784,13.924 6.784,22.109 0,21.782 -17.72,39.501 -39.5,39.501 z"
                 inkscape:connector-curvature="0" />
            </g>
          </g>
          <g
             id="g36"
             transform="matrix(0.43824023,0,0,0.43859891,-670.81122,873.83189)">
            <g
               id="g34">
              <path
                 id="path32"
                 d="m 353.981,221.5 c -30.051,0 -54.5,24.449 -54.5,54.5 0,30.052 24.449,54.5 54.5,54.5 30.051,0 54.5,-24.448 54.5,-54.5 0,-30.051 -24.449,-54.5 -54.5,-54.5 z m -39.5,54.5 c 0,-21.78 17.72,-39.5 39.5,-39.5 8.185,0 15.796,2.504 22.11,6.784 l -54.826,54.826 c -4.28,-6.313 -6.784,-13.924 -6.784,-22.11 z m 39.5,39.5 c -8.185,0 -15.796,-2.503 -22.11,-6.784 l 54.826,-54.826 c 4.28,6.313 6.784,13.924 6.784,22.109 0,21.782 -17.72,39.501 -39.5,39.501 z"
                 inkscape:connector-curvature="0" />
            </g>
          </g>
          <g
             id="g42"
             transform="matrix(0.43824023,0,0,0.43859891,-670.81122,873.83189)">
            <g
               id="g40">
              <path
                 id="path38"
                 d="m 158.02,355.5 c -30.051,0 -54.5,24.449 -54.5,54.5 0,30.052 24.449,54.5 54.5,54.5 30.051,0 54.5,-24.448 54.5,-54.5 0,-30.051 -24.449,-54.5 -54.5,-54.5 z m -39.5,54.5 c 0,-21.78 17.719,-39.5 39.5,-39.5 8.185,0 15.796,2.504 22.11,6.784 l -54.826,54.826 c -4.28,-6.313 -6.784,-13.924 -6.784,-22.11 z m 39.5,39.5 c -8.185,0 -15.796,-2.503 -22.11,-6.784 l 54.826,-54.826 c 4.28,6.313 6.784,13.924 6.784,22.109 0,21.782 -17.72,39.501 -39.5,39.501 z"
                 inkscape:connector-curvature="0" />
            </g>
          </g>
          <g
             id="g48"
             transform="matrix(0.43824023,0,0,0.43859891,-670.81122,873.83189)">
            <g
               id="g46">
              <path
                 id="path44"
                 d="m 353.981,355.5 c -30.051,0 -54.5,24.449 -54.5,54.5 0,30.052 24.449,54.5 54.5,54.5 30.051,0 54.5,-24.448 54.5,-54.5 0,-30.051 -24.449,-54.5 -54.5,-54.5 z m -39.5,54.5 c 0,-21.78 17.72,-39.5 39.5,-39.5 8.185,0 15.796,2.504 22.11,6.784 l -54.826,54.826 c -4.28,-6.313 -6.784,-13.924 -6.784,-22.11 z m 39.5,39.5 c -8.185,0 -15.796,-2.503 -22.11,-6.784 l 54.826,-54.826 c 4.28,6.313 6.784,13.924 6.784,22.109 0,21.782 -17.72,39.501 -39.5,39.501 z"
                 inkscape:connector-curvature="0" />
            </g>
          </g>
          <g
             id="g54"
             transform="matrix(0.43824023,0,0,0.43859891,-670.81122,873.83189)">
            <g
               id="g52">
              <path
                 id="path50"
                 d="m 188.941,38.996 c -4.142,0 -7.5,3.358 -7.5,7.5 v 12.137 c 0,4.142 3.358,7.5 7.5,7.5 4.142,0 7.5,-3.359 7.5,-7.501 V 46.496 c 0,-4.142 -3.358,-7.5 -7.5,-7.5 z"
                 inkscape:connector-curvature="0" />
            </g>
          </g>
          <g
             id="g60"
             transform="matrix(0.43824023,0,0,0.43859891,-670.81122,873.83189)">
            <g
               id="g58">
              <path
                 id="path56"
                 d="m 323.059,38.996 c -4.142,0 -7.5,3.358 -7.5,7.5 v 12.137 c 0,4.142 3.358,7.5 7.5,7.5 4.142,0 7.5,-3.359 7.5,-7.501 V 46.496 c 0,-4.142 -3.358,-7.5 -7.5,-7.5 z"
                 inkscape:connector-curvature="0" />
            </g>
          </g>
          <g
             id="g66"
             transform="matrix(0.43824023,0,0,0.43859891,-670.81122,873.83189)">
            <g
               id="g64">
              <path
                 id="path62"
                 d="m 277.488,52.143 c -3.119,-2.727 -7.857,-2.41 -10.583,0.709 -2.644,3.024 -6.619,4.759 -10.905,4.759 -4.286,0 -8.261,-1.734 -10.905,-4.759 -2.726,-3.119 -7.464,-3.437 -10.583,-0.71 -3.119,2.727 -3.437,7.464 -0.71,10.583 5.492,6.283 13.583,9.887 22.198,9.887 8.615,0 16.706,-3.604 22.198,-9.886 2.726,-3.119 2.408,-7.856 -0.71,-10.583 z"
                 inkscape:connector-curvature="0" />
            </g>
          </g>
          <g
             id="g68"
             transform="matrix(0.43824023,0,0,0.43859891,-670.81122,873.83189)" />
          <g
             id="g70"
             transform="matrix(0.43824023,0,0,0.43859891,-670.81122,873.83189)" />
          <g
             id="g72"
             transform="matrix(0.43824023,0,0,0.43859891,-670.81122,873.83189)" />
          <g
             id="g74"
             transform="matrix(0.43824023,0,0,0.43859891,-670.81122,873.83189)" />
          <g
             id="g76"
             transform="matrix(0.43824023,0,0,0.43859891,-670.81122,873.83189)" />
          <g
             id="g78"
             transform="matrix(0.43824023,0,0,0.43859891,-670.81122,873.83189)" />
          <g
             id="g80"
             transform="matrix(0.43824023,0,0,0.43859891,-670.81122,873.83189)" />
          <g
             id="g82"
             transform="matrix(0.43824023,0,0,0.43859891,-670.81122,873.83189)" />
          <g
             id="g84"
             transform="matrix(0.43824023,0,0,0.43859891,-670.81122,873.83189)" />
          <g
             id="g86"
             transform="matrix(0.43824023,0,0,0.43859891,-670.81122,873.83189)" />
          <g
             id="g88"
             transform="matrix(0.43824023,0,0,0.43859891,-670.81122,873.83189)" />
          <g
             id="g90"
             transform="matrix(0.43824023,0,0,0.43859891,-670.81122,873.83189)" />
          <g
             id="g92"
             transform="matrix(0.43824023,0,0,0.43859891,-670.81122,873.83189)" />
          <g
             id="g94"
             transform="matrix(0.43824023,0,0,0.43859891,-670.81122,873.83189)" />
          <g
             id="g96"
             transform="matrix(0.43824023,0,0,0.43859891,-670.81122,873.83189)" />
        </g>
        <path
           d="m 19.135232,298.83469 3.635033,3.64596 -3.635033,3.64595 1.119082,1.12 4.762053,-4.76595 -4.762053,-4.76596 z"
           id="path4485"
           inkscape:connector-curvature="0"
           style="stroke-width:2.38275146" />
      </g>
    </g>
  </g>
</svg>
