<?xml version="1.0" encoding="UTF-8" standalone="no"?>
<!-- Created with Inkscape (http://www.inkscape.org/) -->

<svg
   xmlns:dc="http://purl.org/dc/elements/1.1/"
   xmlns:cc="http://creativecommons.org/ns#"
   xmlns:rdf="http://www.w3.org/1999/02/22-rdf-syntax-ns#"
   xmlns:svg="http://www.w3.org/2000/svg"
   xmlns="http://www.w3.org/2000/svg"
   xmlns:sodipodi="http://sodipodi.sourceforge.net/DTD/sodipodi-0.dtd"
   xmlns:inkscape="http://www.inkscape.org/namespaces/inkscape"
   width="{WIDTH}"
   height="{HEIGHT}"
   viewBox="0 0 6.349999855 6.35000018"
   version="1.1"
   id="svg20037"
   inkscape:version="0.92.1 r15371"
   sodipodi:docname="arrows.svg">
  <defs
     id="defs20031">
    <filter
       height="1.096"
       y="-0.048"
       width="1.096"
       x="-0.048"
       id="filter3829-3-6"
       style="color-interpolation-filters:sRGB">
      <feGaussianBlur
         id="feGaussianBlur3831-4"
         stdDeviation="0.2090208244" />
    </filter>
  </defs>
  <sodipodi:namedview
     id="base"
     pagecolor="#ffffff"
     bordercolor="#666666"
     borderopacity="1.0"
     inkscape:pageopacity="0.0"
     inkscape:pageshadow="2"
     inkscape:zoom="15.839192"
     inkscape:cx="15.128114"
     inkscape:cy="5.3514789"
     inkscape:document-units="px"
     inkscape:current-layer="layer1"
     showgrid="false"
     units="px"
     inkscape:window-width="1078"
     inkscape:window-height="1191"
     inkscape:window-x="-7"
     inkscape:window-y="657"
     inkscape:window-maximized="0"
     showguides="true"
     inkscape:guide-bbox="true"
     inkscape:snap-bbox="true"
     inkscape:bbox-paths="true"
     inkscape:bbox-nodes="true"
     inkscape:snap-bbox-edge-midpoints="true"
     inkscape:snap-bbox-midpoints="true"
     inkscape:snap-nodes="false">
    <sodipodi:guide
       position="3.175,3.175"
       orientation="0,1"
       id="guide7591"
       inkscape:locked="false"
       inkscape:label=""
       inkscape:color="rgb(0,0,255)" />
    <sodipodi:guide
       position="3.175,3.175"
       orientation="1,0"
       id="guide7593"
       inkscape:locked="false"
       inkscape:label=""
       inkscape:color="rgb(0,0,255)" />
    <sodipodi:guide
       position="0.52916667,6.4311732"
       orientation="1,0"
       id="guide7601"
       inkscape:locked="false"
       inkscape:label=""
       inkscape:color="rgb(0,0,255)" />
    <sodipodi:guide
       position="5.8208333,6.1137906"
       orientation="1,0"
       id="guide7603"
       inkscape:locked="false"
       inkscape:label=""
       inkscape:color="rgb(0,0,255)" />
    <sodipodi:guide
       position="-1.8708867,5.8208333"
       orientation="0,1"
       id="guide7605"
       inkscape:locked="false"
       inkscape:label=""
       inkscape:color="rgb(0,0,255)" />
    <sodipodi:guide
       position="-1.6537302,0.52916667"
       orientation="0,1"
       id="guide7607"
       inkscape:locked="false"
       inkscape:label=""
       inkscape:color="rgb(0,0,255)" />
  </sodipodi:namedview>
  <metadata
     id="metadata20034">
    <rdf:RDF>
      <cc:Work
         rdf:about="">
        <dc:format>image/svg+xml</dc:format>
        <dc:type
           rdf:resource="http://purl.org/dc/dcmitype/StillImage" />
        <dc:title></dc:title>
      </cc:Work>
    </rdf:RDF>
  </metadata>
  <g
     inkscape:label="Capa 1"
     inkscape:groupmode="layer"
     id="layer1"
     transform="translate(0,-290.649984)">
    <g
       display="none"
       id="g9991"
       style="display:none;fill:#ff00ff;stroke-width:1"
       transform="matrix(0.264583334,0,0,0.264583334,0,290.649984)">
      <g
         id="g9983"
         style="fill:#ff00ff;stroke-width:1" />
      <g
         id="g9989"
         display="inline"
         style="display:inline;fill:#ff00ff;stroke-width:1">
        <path
           inkscape:connector-curvature="0"
           id="path9985"
           d="m 12,12 c 2.21,0 4,-1.79 4,-4 C 16,5.79 14.21,4 12,4 9.79,4 8,5.79 8,8 c 0,2.21 1.79,4 4,4 z m 0,-6 c 1.1,0 2,0.9 2,2 0,1.1 -0.9,2 -2,2 -1.1,0 -2,-0.9 -2,-2 0,-1.1 0.9,-2 2,-2 z"
           style="fill:#ff00ff;stroke-width:1" />
        <path
           inkscape:connector-curvature="0"
           id="path9987"
           d="m 12,13 c -2.67,0 -8,1.34 -8,4 v 2 c 0,0.55 0.45,1 1,1 h 14 c 0.55,0 1,-0.45 1,-1 v -2 c 0,-2.66 -5.33,-4 -8,-4 z m 6,5 H 6 V 17.01 C 6.2,16.29 9.3,15 12,15 c 2.7,0 5.8,1.29 6,2 z"
           style="fill:#ff00ff;stroke-width:1" />
      </g>
    </g>
    <g
       display="none"
       id="g10001"
       style="display:none;fill:#ff00ff;stroke-width:1"
       transform="matrix(0.264583334,0,0,0.264583334,0,290.649984)">
      <g
         id="g9993"
         style="fill:#ff00ff;stroke-width:1" />
      <g
         id="g9999"
         display="inline"
         style="display:inline;fill:#ff00ff;stroke-width:1">
        <path
           inkscape:connector-curvature="0"
           id="path9995"
           d="m 12,12 c 2.21,0 4,-1.79 4,-4 C 16,5.79 14.21,4 12,4 9.79,4 8,5.79 8,8 c 0,2.21 1.79,4 4,4 z m 0,-6 c 1.1,0 2,0.9 2,2 0,1.1 -0.9,2 -2,2 -1.1,0 -2,-0.9 -2,-2 0,-1.1 0.9,-2 2,-2 z"
           style="fill:#ff00ff;stroke-width:1" />
        <path
           inkscape:connector-curvature="0"
           id="path9997"
           d="m 12,13 c -2.67,0 -8,1.34 -8,4 v 3 h 16 v -3 c 0,-2.66 -5.33,-4 -8,-4 z m 6,5 H 6 V 17.01 C 6.2,16.29 9.3,15 12,15 c 2.7,0 5.8,1.29 6,2 z"
           style="fill:#ff00ff;stroke-width:1" />
      </g>
    </g>
    <g
       display="none"
       id="g10021"
       style="display:none;fill:#ff00ff;stroke-width:1"
       transform="matrix(0.264583334,0,0,0.264583334,0,290.649984)">
      <g
         id="g10009"
         style="fill:#ff00ff;stroke-width:1" />
      <g
         id="g10019"
         display="inline"
         style="display:inline;fill:#ff00ff;stroke-width:1">
        <circle
           id="circle10011"
           r="2"
           cy="8"
           cx="12"
           style="opacity:0.3;fill:#ff00ff;stroke-width:1" />
        <path
           inkscape:connector-curvature="0"
           id="path10013"
           d="M 12,15 C 9.3,15 6.2,16.29 6,17.01 V 18 h 12 v -1 c -0.2,-0.71 -3.3,-2 -6,-2 z"
           style="opacity:0.3;fill:#ff00ff;stroke-width:1" />
        <path
           inkscape:connector-curvature="0"
           id="path10015"
           d="m 12,12 c 2.21,0 4,-1.79 4,-4 C 16,5.79 14.21,4 12,4 9.79,4 8,5.79 8,8 c 0,2.21 1.79,4 4,4 z m 0,-6 c 1.1,0 2,0.9 2,2 0,1.1 -0.9,2 -2,2 -1.1,0 -2,-0.9 -2,-2 0,-1.1 0.9,-2 2,-2 z"
           style="fill:#ff00ff;stroke-width:1" />
        <path
           inkscape:connector-curvature="0"
           id="path10017"
           d="m 12,13 c -2.67,0 -8,1.34 -8,4 v 3 h 16 v -3 c 0,-2.66 -5.33,-4 -8,-4 z m 6,5 H 6 V 17.01 C 6.2,16.29 9.3,15 12,15 c 2.7,0 5.8,1.29 6,2 z"
           style="fill:#ff00ff;stroke-width:1" />
      </g>
    </g>
    <g
       display="none"
       id="g10031"
       style="display:none;fill:#ff00ff;stroke-width:1"
       transform="matrix(0.264583334,0,0,0.264583334,0,290.649984)">
      <g
         id="g10023"
         style="fill:#ff00ff;stroke-width:1" />
      <g
         id="g10029"
         display="inline"
         style="display:inline;fill:#ff00ff;stroke-width:1">
        <path
           inkscape:connector-curvature="0"
           id="path10025"
           d="m 12,12 c 2.21,0 4,-1.79 4,-4 C 16,5.79 14.21,4 12,4 9.79,4 8,5.79 8,8 c 0,2.21 1.79,4 4,4 z m 0,-6 c 1.1,0 2,0.9 2,2 0,1.1 -0.9,2 -2,2 -1.1,0 -2,-0.9 -2,-2 0,-1.1 0.9,-2 2,-2 z"
           style="fill:#ff00ff;stroke-width:1" />
        <path
           inkscape:connector-curvature="0"
           id="path10027"
           d="m 12,13 c -2.67,0 -8,1.34 -8,4 v 3 h 16 v -3 c 0,-2.66 -5.33,-4 -8,-4 z m 6,5 H 6 V 17.01 C 6.2,16.29 9.3,15 12,15 c 2.7,0 5.8,1.29 6,2 z"
           style="fill:#ff00ff;stroke-width:1" />
      </g>
    </g>
    <circle
       style="opacity:1;fill:{BGFILL};fill-opacity:1;fill-rule:evenodd;stroke:none;stroke-width:0.12423389;stroke-linecap:round;stroke-linejoin:round;stroke-miterlimit:4;stroke-dasharray:none;stroke-dashoffset:0;stroke-opacity:1"
       id="circle13146"
       cx="3.175"
       cy="293.82498"
       r="2.6458333"
       inkscape:transform-center-y="-3.7417735"
       inkscape:transform-center-x="-1.8040694" />
    <g
       style="stroke-width:0.93899035"
       id="g13152"
       transform="matrix(0.19845871,0,0,0.1984587,0.79349548,291.44348)">
      <g
         display="none"
         id="g13148"
         style="display:none;stroke-width:0.93899035" />
      <path
         id="path13150"
         d="M 0,0 H 24 V 24 H 0 Z"
         style="fill:none;stroke-width:0.93899035"
         inkscape:connector-curvature="0" />
    </g>
    <g
       display="none"
       id="g13158"
       style="display:none;stroke-width:0.93899035"
       transform="matrix(0.19845871,0,0,0.1984587,0.79349548,291.44348)">
      <g
         style="stroke-width:0.93899035"
         id="g13154" />
      <path
         id="path13156"
         d="M 19,3 H 18 V 2 C 18,1.45 17.55,1 17,1 V 1 C 16.45,1 16,1.45 16,2 V 3 H 8 V 2 C 8,1.45 7.55,1 7,1 V 1 C 6.45,1 6,1.45 6,2 V 3 H 5 C 3.89,3 3,3.9 3,5 v 14 c 0,1.1 0.9,2 2,2 h 14 c 1.1,0 2,-0.9 2,-2 V 5 C 21,3.9 20.1,3 19,3 Z m -7,3 c 1.66,0 3,1.34 3,3 0,1.66 -1.34,3 -3,3 C 10.34,12 9,10.66 9,9 9,7.34 10.34,6 12,6 Z m 6,12 H 6 v -1 c 0,-2 4,-3.1 6,-3.1 2,0 6,1.1 6,3.1 z"
         display="inline"
         style="display:inline;stroke-width:0.93899035"
         inkscape:connector-curvature="0" />
    </g>
    <g
       display="none"
       id="g13164"
       style="display:none;stroke-width:0.93899035"
       transform="matrix(0.19845871,0,0,0.1984587,0.79349548,291.44348)">
      <g
         style="stroke-width:0.93899035"
         id="g13160" />
      <path
         id="path13162"
         d="M 21,3 H 18 V 1 H 16 V 3 H 8 V 1 H 6 V 3 H 3 v 18 h 18 z m -9,3 c 1.66,0 3,1.34 3,3 0,1.66 -1.34,3 -3,3 C 10.34,12 9,10.66 9,9 9,7.34 10.34,6 12,6 Z m 6,12 H 6 v -1 c 0,-2 4,-3.1 6,-3.1 2,0 6,1.1 6,3.1 z"
         display="inline"
         style="display:inline;stroke-width:0.93899035"
         inkscape:connector-curvature="0" />
    </g>
    <g
       display="none"
       id="g13192"
       style="display:none;stroke-width:0.93899035"
       transform="matrix(0.19845871,0,0,0.1984587,0.79349548,291.44348)">
      <g
         style="stroke-width:0.93899035"
         id="g13178" />
      <g
         id="g13190"
         display="inline"
         style="display:inline;stroke-width:0.93899035">
        <path
           id="path13180"
           d="M 16,5 H 8 6 5 V 19 H 19 V 5 h -1 z m -4,1 c 1.65,0 3,1.35 3,3 0,1.65 -1.35,3 -3,3 C 10.35,12 9,10.65 9,9 9,7.35 10.35,6 12,6 Z m 6,12 H 6 v -1.53 c 0,-2.5 3.97,-3.58 6,-3.58 2.03,0 6,1.08 6,3.58 z"
           style="opacity:0.3;stroke-width:0.93899035"
           inkscape:connector-curvature="0" />
        <g
           style="stroke-width:0.93899035"
           id="g13188">
          <path
             style="stroke-width:0.93899035"
             id="path13182"
             d="M 20.84,4.22 C 20.79,4.1 20.73,3.99 20.66,3.88 20.52,3.67 20.33,3.48 20.12,3.34 20.01,3.27 19.9,3.21 19.78,3.16 19.54,3.06 19.28,3 19,3 H 18 V 1 H 16 V 3 H 8 V 1 H 6 V 3 H 5 C 4.58,3 4.2,3.13 3.88,3.34 3.67,3.48 3.48,3.67 3.34,3.88 3.27,3.99 3.21,4.1 3.16,4.22 3.06,4.46 3,4.72 3,5 v 14 c 0,1.1 0.89,2 2,2 h 14 c 0.28,0 0.54,-0.06 0.78,-0.16 0.12,-0.05 0.23,-0.11 0.34,-0.18 0.21,-0.14 0.4,-0.33 0.54,-0.54 C 20.87,19.8 21,19.41 21,19 V 5 C 21,4.72 20.94,4.46 20.84,4.22 Z M 19,19 H 5 V 5 h 1 2 8 2 1 z"
             inkscape:connector-curvature="0" />
          <path
             style="stroke-width:0.93899035"
             id="path13184"
             d="m 12,12.88 c -2.03,0 -6,1.08 -6,3.58 V 18 h 12 v -1.53 c 0,-2.51 -3.97,-3.59 -6,-3.59 z M 8.31,16 C 9,15.44 10.69,14.88 12,14.88 c 1.31,0 3.01,0.56 3.69,1.12 z"
             inkscape:connector-curvature="0" />
          <path
             style="stroke-width:0.93899035"
             id="path13186"
             d="m 12,12 c 1.65,0 3,-1.35 3,-3 0,-1.65 -1.35,-3 -3,-3 -1.65,0 -3,1.35 -3,3 0,1.65 1.35,3 3,3 z m 0,-4 c 0.55,0 1,0.45 1,1 0,0.55 -0.45,1 -1,1 -0.55,0 -1,-0.45 -1,-1 0,-0.55 0.45,-1 1,-1 z"
             inkscape:connector-curvature="0" />
        </g>
      </g>
    </g>
    <g
       display="none"
       id="g13198"
       style="display:none;stroke-width:0.93899035"
       transform="matrix(0.19845871,0,0,0.1984587,0.79349548,291.44348)">
      <g
         style="stroke-width:0.93899035"
         id="g13194" />
      <path
         id="path13196"
         d="M 19,3 H 18 V 1 H 16 V 3 H 8 V 1 H 6 V 3 H 5 C 3.89,3 3,3.9 3,5 v 14 c 0,1.1 0.89,2 2,2 h 14 c 1.1,0 2,-0.9 2,-2 V 5 C 21,3.9 20.1,3 19,3 Z m -7,3 c 1.66,0 3,1.34 3,3 0,1.66 -1.34,3 -3,3 C 10.34,12 9,10.66 9,9 9,7.34 10.34,6 12,6 Z m 6,12 H 6 v -1 c 0,-2 4,-3.1 6,-3.1 2,0 6,1.1 6,3.1 z"
         display="inline"
         style="display:inline;stroke-width:0.93899035"
         inkscape:connector-curvature="0" />
    </g>
    <g
       style="stroke-width:0.93669999"
       id="g13108"
       transform="matrix(0.16601466,0,0,0.165735,1.1828241,291.83616)">
      <g
         style="fill:{COLOR};stroke-width:0.93669999"
         id="g13106">
        <path
           inkscape:connector-curvature="0"
           d="M 12,2 C 6.48,2 2,6.48 2,12 2,17.52 6.48,22 12,22 17.52,22 22,17.52 22,12 22,6.48 17.52,2 12,2 Z m 0,18 C 7.59,20 4,16.41 4,12 4,7.59 7.59,4 12,4 c 4.41,0 8,3.59 8,8 0,4.41 -3.59,8 -8,8 z"
           id="path13100" />
        <polygon
           points="15,6.5 15,9 11,9 11,11 15,11 15,13.5 18.5,10 "
           id="polygon13102" />
        <polygon
           points="9,10.5 5.5,14 9,17.5 9,15 13,15 13,13 9,13 "
           id="polygon13104" />
      </g>
    </g>
  </g>
</svg>
