<svg width="16" height="15" viewBox="0 0 16 15" fill="none" xmlns="http://www.w3.org/2000/svg">
<path d="M1.89279 1.42854C1.89279 1.21425 1.76421 0.785679 1.24993 0.785679H0.928499C0.714214 0.785679 0.285645 0.914251 0.285645 1.42854V7.85711C0.285645 7.96425 0.317787 8.24282 0.446359 8.49996C0.57493 8.75711 2.53564 10.9643 3.49993 12.0357V14.2857H6.39279V9.94639C6.39279 9.64159 6.24826 9.33678 6.09627 9.16902L2.17467 5.24743C1.98638 5.05914 1.68111 5.05914 1.49282 5.24743L1.23859 5.50165C1.05031 5.68994 1.05031 5.99522 1.23859 6.18351L3.28403 8.22894L3.17039 8.34259L1.12495 6.29715C0.8739 6.0461 0.8739 5.63906 1.12495 5.38801L1.37918 5.13378C1.51974 4.99323 1.70919 4.93136 1.89279 4.9482V1.42854Z" fill="#333333" fill-opacity="1"/>
<path d="M14.1071 1.42854C14.1071 1.21425 14.2356 0.785679 14.7499 0.785679H15.0714C15.2856 0.785679 15.7142 0.914251 15.7142 1.42854V7.85711C15.7142 7.96425 15.6821 8.24282 15.5535 8.49996C15.4249 8.75711 13.4642 10.9643 12.4999 12.0357V14.2857H9.60707V9.94639C9.60707 9.64159 9.7516 9.33678 9.90359 9.16902L13.8252 5.24743C14.0135 5.05914 14.3188 5.05914 14.507 5.24743L14.7613 5.50165C14.9496 5.68994 14.9496 5.99522 14.7613 6.18351L12.7158 8.22894L12.8295 8.34259L14.8749 6.29715C15.126 6.0461 15.126 5.63906 14.8749 5.38801L14.6207 5.13378C14.4801 4.99323 14.2907 4.93136 14.1071 4.9482V1.42854Z" fill="#333333" fill-opacity="1"/>
<path d="M11.2142 3.35711C11.2142 5.13231 9.77513 6.57139 7.99993 6.57139C6.22473 6.57139 4.78565 5.13231 4.78565 3.35711C4.78565 1.58191 6.22473 0.142822 7.99993 0.142822C9.77513 0.142822 11.2142 1.58191 11.2142 3.35711Z" fill="#333333" fill-opacity="1"/>
</svg>
