<?xml version="1.0" encoding="UTF-8" standalone="no"?>
<!-- Created with Inkscape (http://www.inkscape.org/) -->

<svg
   xmlns:dc="http://purl.org/dc/elements/1.1/"
   xmlns:cc="http://creativecommons.org/ns#"
   xmlns:rdf="http://www.w3.org/1999/02/22-rdf-syntax-ns#"
   xmlns:svg="http://www.w3.org/2000/svg"
   xmlns="http://www.w3.org/2000/svg"
   xmlns:sodipodi="http://sodipodi.sourceforge.net/DTD/sodipodi-0.dtd"
   xmlns:inkscape="http://www.inkscape.org/namespaces/inkscape"
   id="svg20037"
   height="36"
   width="199.5"
   version="1.1"
   viewBox="0 0 52.78437378 9.52500027"
   sodipodi:docname="favbar_color_fpl-sp.svg"
   inkscape:version="0.92.3 (2405546, 2018-03-11)">
  <sodipodi:namedview
     pagecolor="#ffffff"
     bordercolor="#666666"
     borderopacity="1"
     objecttolerance="10"
     gridtolerance="10"
     guidetolerance="10"
     inkscape:pageopacity="0"
     inkscape:pageshadow="2"
     inkscape:window-width="1920"
     inkscape:window-height="1017"
     id="namedview35"
     showgrid="false"
     inkscape:zoom="4.2706767"
     inkscape:cx="67.011307"
     inkscape:cy="-20.556407"
     inkscape:window-x="1072"
     inkscape:window-y="830"
     inkscape:window-maximized="1"
     inkscape:current-layer="svg20037" />
  <defs
     id="defs20031">
    <filter
       id="filter3829-3-6"
       style="color-interpolation-filters:sRGB"
       height="1.096"
       width="1.096"
       y="-0.048"
       x="-0.048">
      <feGaussianBlur
         id="feGaussianBlur3831-4"
         stdDeviation="0.2090208244" />
    </filter>
  </defs>
  <metadata
     id="metadata20034">
    <rdf:RDF>
      <cc:Work
         rdf:about="">
        <dc:format>image/svg+xml</dc:format>
        <dc:type
           rdf:resource="http://purl.org/dc/dcmitype/StillImage" />
        <dc:title></dc:title>
      </cc:Work>
    </rdf:RDF>
  </metadata>
  <path
     style="fill:{LABEL.BGFILL};fill-rule:evenodd;stroke-width:3.7795276642"
     d="M 15.12109375 3.814453125 C 7.262356914 3.814453125 0.935546875 10.14126316 0.935546875 18 C 0.935546875 25.85873684 7.262356914 32.18554688 15.12109375 32.18554688 L 172.7441406 32.22070312 C 180.6224916 32.22070312 186.9648437 25.87824665 186.9648438 18 C 186.9648438 10.12175335 180.6224916 3.779296875 172.7441406 3.779296875 L 89.46679688 3.779296875 z "
     transform="scale(0.264583334)"
     id="rect923" />
  <text
     x="3"
     y="6.4"
     font-size="5.7387px"
     line-height="1.25"
     transform="scale(1.00088037,0.9991204044)"
     xml:space="preserve"
     style="font-size:5.7388124466px;line-height:1.25;font-family:Rubik;letter-spacing:0px;word-spacing:0px;stroke-width:1.0000196695"
     id="text13073">
	 <tspan
   style="font-size:5px;font-family:Roboto,'Open Sans',sans-serif;fill:{LABEL.COLOR};stroke-width:0.264585197"
   x="3"
   y="6.4"
   text-anchor="start"
   font-size="5.0211px"
   id="tspan13071"
   term="{TERM}">{TEXT}</tspan>
   </text>
  <circle
     style="fill:#b3b3b3;fill-rule:evenodd;filter:url(#filter3829-3-6)"
     r="5.225500107"
     cx="135.9499969"
     cy="651.0700073"
     transform="matrix(0.82564,0,0,0.82466,-64.191,-532.1)"
     id="circle13075" />
  <ellipse
     id="circle13077"
     cx="47.70294571"
     cy="4.455571175"
     rx="4.522853851"
     ry="4.51523447"
     style="fill:{ICON.BGFILL};fill-rule:evenodd;stroke-width:1.000020504" />
  <rect
     style="fill:none"
     x="0"
     y="0.01001098659"
     width="52.7840004"
     height="9.524999619"
     id="rect1105" />
  <g
     id="g1041"
     transform="matrix(0.38461545,0,0,0.38461545,48.354027,-29.193896)">
    <g
       id="g6"
       transform="matrix(0.02687174,0,0,0.02687174,-8.1714988,80.53721)">
      <g
         id="g4">
        <path
           id="path2"
		   style="fill:{ICON.COLOR};"
           d="m 463.999,354.915 c -4.142,0 -7.5,3.358 -7.5,7.5 v 90.603 c 0,24.252 -19.73,43.982 -43.982,43.982 H 99.482 C 75.23,497 55.5,477.27 55.5,453.018 V 221.415 c 0,-4.142 -3.358,-7.5 -7.5,-7.5 -4.142,0 -7.5,3.358 -7.5,7.5 V 453.018 C 40.5,485.541 66.959,512 99.482,512 h 313.035 c 32.523,0 58.982,-26.459 58.982,-58.982 v -90.603 c 0,-4.142 -3.358,-7.5 -7.5,-7.5 z"
           inkscape:connector-curvature="0" />
      </g>
    </g>
    <g
       id="g12"
       transform="matrix(0.02687174,0,0,0.02687174,-8.1714988,80.53721)">
      <g
         id="g10">
        <path
           id="path8-9"
		   style="fill:{ICON.COLOR};"
           d="M 412.518,0 H 99.482 C 66.959,0 40.5,26.459 40.5,58.982 v 132.433 c 0,4.142 3.358,7.5 7.5,7.5 4.142,0 7.5,-3.358 7.5,-7.5 V 58.982 C 55.5,34.73 75.23,15 99.482,15 H 412.517 C 436.77,15 456.5,34.73 456.5,58.982 v 273.433 c 0,4.142 3.358,7.5 7.5,7.5 4.142,0 7.5,-3.358 7.5,-7.5 V 58.982 C 471.5,26.459 445.041,0 412.518,0 Z"
           inkscape:connector-curvature="0" />
      </g>
    </g>
    <g
       id="g18"
       transform="matrix(0.02687174,0,0,0.02687174,-8.1714988,80.53721)">
      <g
         id="g16">
        <path
           id="path14-5"
		   style="fill:{ICON.COLOR};"
           d="m 158.02,87.5 c -30.051,0 -54.5,24.449 -54.5,54.5 0,30.052 24.449,54.5 54.5,54.5 30.051,0 54.5,-24.448 54.5,-54.5 0,-30.051 -24.449,-54.5 -54.5,-54.5 z m -39.5,54.5 c 0,-21.78 17.719,-39.5 39.5,-39.5 8.185,0 15.796,2.504 22.11,6.784 l -54.826,54.826 c -4.28,-6.313 -6.784,-13.924 -6.784,-22.11 z m 39.5,39.5 c -8.185,0 -15.796,-2.503 -22.11,-6.784 l 54.826,-54.826 c 4.28,6.313 6.784,13.924 6.784,22.109 0,21.782 -17.72,39.501 -39.5,39.501 z"
           inkscape:connector-curvature="0" />
      </g>
    </g>
    <g
       id="g24"
       transform="matrix(0.02687174,0,0,0.02687174,-8.1714988,80.53721)">
      <g
         id="g22">
        <path
           id="path20-3"
		   style="fill:{ICON.COLOR};"
           d="m 353.981,87.5 c -30.051,0 -54.5,24.449 -54.5,54.5 0,30.052 24.449,54.5 54.5,54.5 30.051,0 54.5,-24.448 54.5,-54.5 0,-30.051 -24.449,-54.5 -54.5,-54.5 z m -39.5,54.5 c 0,-21.78 17.72,-39.5 39.5,-39.5 8.185,0 15.796,2.504 22.11,6.784 l -54.826,54.826 c -4.28,-6.313 -6.784,-13.924 -6.784,-22.11 z m 39.5,39.5 c -8.185,0 -15.796,-2.503 -22.11,-6.784 l 54.826,-54.826 c 4.28,6.313 6.784,13.924 6.784,22.109 0,21.782 -17.72,39.501 -39.5,39.501 z"
           inkscape:connector-curvature="0" />
      </g>
    </g>
    <g
       id="g30"
       transform="matrix(0.02687174,0,0,0.02687174,-8.1714988,80.53721)">
      <g
         id="g28">
        <path
           id="path26"
		   style="fill:{ICON.COLOR};"
           d="m 158.02,221.5 c -30.051,0 -54.5,24.449 -54.5,54.5 0,30.052 24.449,54.5 54.5,54.5 30.051,0 54.5,-24.448 54.5,-54.5 0,-30.051 -24.449,-54.5 -54.5,-54.5 z m -39.5,54.5 c 0,-21.78 17.719,-39.5 39.5,-39.5 8.185,0 15.796,2.504 22.11,6.784 l -54.826,54.826 c -4.28,-6.313 -6.784,-13.924 -6.784,-22.11 z m 39.5,39.5 c -8.185,0 -15.796,-2.503 -22.11,-6.784 l 54.826,-54.826 c 4.28,6.313 6.784,13.924 6.784,22.109 0,21.782 -17.72,39.501 -39.5,39.501 z"
           inkscape:connector-curvature="0" />
      </g>
    </g>
    <g
       id="g36"
       transform="matrix(0.02687174,0,0,0.02687174,-8.1714988,80.53721)">
      <g
         id="g34">
        <path
           id="path32"
		   style="fill:{ICON.COLOR};"
           d="m 353.981,221.5 c -30.051,0 -54.5,24.449 -54.5,54.5 0,30.052 24.449,54.5 54.5,54.5 30.051,0 54.5,-24.448 54.5,-54.5 0,-30.051 -24.449,-54.5 -54.5,-54.5 z m -39.5,54.5 c 0,-21.78 17.72,-39.5 39.5,-39.5 8.185,0 15.796,2.504 22.11,6.784 l -54.826,54.826 c -4.28,-6.313 -6.784,-13.924 -6.784,-22.11 z m 39.5,39.5 c -8.185,0 -15.796,-2.503 -22.11,-6.784 l 54.826,-54.826 c 4.28,6.313 6.784,13.924 6.784,22.109 0,21.782 -17.72,39.501 -39.5,39.501 z"
           inkscape:connector-curvature="0" />
      </g>
    </g>
    <g
       id="g42"
       transform="matrix(0.02687174,0,0,0.02687174,-8.1714988,80.53721)">
      <g
         id="g40">
        <path
           id="path38"
		   style="fill:{ICON.COLOR};"
           d="m 158.02,355.5 c -30.051,0 -54.5,24.449 -54.5,54.5 0,30.052 24.449,54.5 54.5,54.5 30.051,0 54.5,-24.448 54.5,-54.5 0,-30.051 -24.449,-54.5 -54.5,-54.5 z m -39.5,54.5 c 0,-21.78 17.719,-39.5 39.5,-39.5 8.185,0 15.796,2.504 22.11,6.784 l -54.826,54.826 c -4.28,-6.313 -6.784,-13.924 -6.784,-22.11 z m 39.5,39.5 c -8.185,0 -15.796,-2.503 -22.11,-6.784 l 54.826,-54.826 c 4.28,6.313 6.784,13.924 6.784,22.109 0,21.782 -17.72,39.501 -39.5,39.501 z"
           inkscape:connector-curvature="0" />
      </g>
    </g>
    <g
       id="g48"
       transform="matrix(0.02687174,0,0,0.02687174,-8.1714988,80.53721)">
      <g
         id="g46">
        <path
           id="path44"
		   style="fill:{ICON.COLOR};"
           d="m 353.981,355.5 c -30.051,0 -54.5,24.449 -54.5,54.5 0,30.052 24.449,54.5 54.5,54.5 30.051,0 54.5,-24.448 54.5,-54.5 0,-30.051 -24.449,-54.5 -54.5,-54.5 z m -39.5,54.5 c 0,-21.78 17.72,-39.5 39.5,-39.5 8.185,0 15.796,2.504 22.11,6.784 l -54.826,54.826 c -4.28,-6.313 -6.784,-13.924 -6.784,-22.11 z m 39.5,39.5 c -8.185,0 -15.796,-2.503 -22.11,-6.784 l 54.826,-54.826 c 4.28,6.313 6.784,13.924 6.784,22.109 0,21.782 -17.72,39.501 -39.5,39.501 z"
           inkscape:connector-curvature="0" />
      </g>
    </g>
    <g
       id="g54"
       transform="matrix(0.02687174,0,0,0.02687174,-8.1714988,80.53721)">
      <g
         id="g52">
        <path
           id="path50"
		   style="fill:{ICON.COLOR};"
           d="m 188.941,38.996 c -4.142,0 -7.5,3.358 -7.5,7.5 v 12.137 c 0,4.142 3.358,7.5 7.5,7.5 4.142,0 7.5,-3.359 7.5,-7.501 V 46.496 c 0,-4.142 -3.358,-7.5 -7.5,-7.5 z"
           inkscape:connector-curvature="0" />
      </g>
    </g>
    <g
       id="g60"
       transform="matrix(0.02687174,0,0,0.02687174,-8.1714988,80.53721)">
      <g
         id="g58">
        <path
           id="path56"
		   style="fill:{ICON.COLOR};"
           d="m 323.059,38.996 c -4.142,0 -7.5,3.358 -7.5,7.5 v 12.137 c 0,4.142 3.358,7.5 7.5,7.5 4.142,0 7.5,-3.359 7.5,-7.501 V 46.496 c 0,-4.142 -3.358,-7.5 -7.5,-7.5 z"
           inkscape:connector-curvature="0" />
      </g>
    </g>
    <g
       id="g66"
       transform="matrix(0.02687174,0,0,0.02687174,-8.1714988,80.53721)">
      <g
         id="g64">
        <path
           id="path62"
		   style="fill:{ICON.COLOR};"
           d="m 277.488,52.143 c -3.119,-2.727 -7.857,-2.41 -10.583,0.709 -2.644,3.024 -6.619,4.759 -10.905,4.759 -4.286,0 -8.261,-1.734 -10.905,-4.759 -2.726,-3.119 -7.464,-3.437 -10.583,-0.71 -3.119,2.727 -3.437,7.464 -0.71,10.583 5.492,6.283 13.583,9.887 22.198,9.887 8.615,0 16.706,-3.604 22.198,-9.886 2.726,-3.119 2.408,-7.856 -0.71,-10.583 z"
           inkscape:connector-curvature="0" />
      </g>
    </g>
    <g
       id="g68"
       transform="matrix(0.02687174,0,0,0.02687174,-8.1714988,80.53721)" />
    <g
       id="g70"
       transform="matrix(0.02687174,0,0,0.02687174,-8.1714988,80.53721)" />
    <g
       id="g72"
       transform="matrix(0.02687174,0,0,0.02687174,-8.1714988,80.53721)" />
    <g
       id="g74"
       transform="matrix(0.02687174,0,0,0.02687174,-8.1714988,80.53721)" />
    <g
       id="g76"
       transform="matrix(0.02687174,0,0,0.02687174,-8.1714988,80.53721)" />
    <g
       id="g78"
       transform="matrix(0.02687174,0,0,0.02687174,-8.1714988,80.53721)" />
    <g
       id="g80"
       transform="matrix(0.02687174,0,0,0.02687174,-8.1714988,80.53721)" />
    <g
       id="g82"
       transform="matrix(0.02687174,0,0,0.02687174,-8.1714988,80.53721)" />
    <g
       id="g84"
       transform="matrix(0.02687174,0,0,0.02687174,-8.1714988,80.53721)" />
    <g
       id="g86"
       transform="matrix(0.02687174,0,0,0.02687174,-8.1714988,80.53721)" />
    <g
       id="g88"
       transform="matrix(0.02687174,0,0,0.02687174,-8.1714988,80.53721)" />
    <g
       id="g90"
       transform="matrix(0.02687174,0,0,0.02687174,-8.1714988,80.53721)" />
    <g
       id="g92"
       transform="matrix(0.02687174,0,0,0.02687174,-8.1714988,80.53721)" />
    <g
       id="g94"
       transform="matrix(0.02687174,0,0,0.02687174,-8.1714988,80.53721)" />
    <g
       id="g96"
       transform="matrix(0.02687174,0,0,0.02687174,-8.1714988,80.53721)" />
  </g>
</svg>
