<?xml version="1.0" encoding="UTF-8" standalone="no"?>
<!-- Created with Inkscape (http://www.inkscape.org/) -->

<svg
   xmlns:dc="http://purl.org/dc/elements/1.1/"
   xmlns:cc="http://creativecommons.org/ns#"
   xmlns:rdf="http://www.w3.org/1999/02/22-rdf-syntax-ns#"
   xmlns:svg="http://www.w3.org/2000/svg"
   xmlns="http://www.w3.org/2000/svg"
   xmlns:sodipodi="http://sodipodi.sourceforge.net/DTD/sodipodi-0.dtd"
   xmlns:inkscape="http://www.inkscape.org/namespaces/inkscape"
   id="svg20037"
   height="36"
   width="199.5"
   version="1.1"
   viewBox="0 0 52.78437378 9.52500027"
   sodipodi:docname="favbar_color_sas.svg"
   inkscape:version="0.92.3 (2405546, 2018-03-11)">
  <sodipodi:namedview
     pagecolor="#ffffff"
     bordercolor="#666666"
     borderopacity="1"
     objecttolerance="10"
     gridtolerance="10"
     guidetolerance="10"
     inkscape:pageopacity="0"
     inkscape:pageshadow="2"
     inkscape:window-width="1920"
     inkscape:window-height="1017"
     id="namedview35"
     showgrid="false"
     inkscape:zoom="4.2706767"
     inkscape:cx="108.39107"
     inkscape:cy="3.0283146"
     inkscape:window-x="1072"
     inkscape:window-y="830"
     inkscape:window-maximized="1"
     inkscape:current-layer="svg20037" />
  <defs
     id="defs20031">
    <filter
       id="filter3829-3-6"
       style="color-interpolation-filters:sRGB"
       height="1.096"
       width="1.096"
       y="-0.048"
       x="-0.048">
      <feGaussianBlur
         id="feGaussianBlur3831-4"
         stdDeviation="0.2090208244" />
    </filter>
  </defs>
  <metadata
     id="metadata20034">
    <rdf:RDF>
      <cc:Work
         rdf:about="">
        <dc:format>image/svg+xml</dc:format>
        <dc:type
           rdf:resource="http://purl.org/dc/dcmitype/StillImage" />
        <dc:title></dc:title>
      </cc:Work>
    </rdf:RDF>
  </metadata>
  <path
     style="fill:{LABEL.BGFILL};fill-rule:evenodd;stroke-width:3.7795276642"
     d="M 15.12109375 3.814453125 C 7.262356914 3.814453125 0.935546875 10.14126316 0.935546875 18 C 0.935546875 25.85873684 7.262356914 32.18554688 15.12109375 32.18554688 L 172.7441406 32.22070312 C 180.6224916 32.22070312 186.9648437 25.87824665 186.9648438 18 C 186.9648438 10.12175335 180.6224916 3.779296875 172.7441406 3.779296875 L 89.46679688 3.779296875 z "
     transform="scale(0.264583334)"
     id="rect923" />
  <text
     x="3"
     y="6.4"
     font-size="5.7387px"
     line-height="1.25"
     transform="scale(1.00088037,0.9991204044)"
     xml:space="preserve"
     style="font-size:5.7388124466px;line-height:1.25;font-family:Rubik;letter-spacing:0px;word-spacing:0px;stroke-width:1.0000196695"
     id="text13073">
	 <tspan
   style="font-size:5px;font-family:Roboto,'Open Sans',sans-serif;fill:{LABEL.COLOR};stroke-width:0.264585197"
   x="3"
   y="6.4"
   text-anchor="start"
   font-size="5.0211px"
   id="tspan13071"
   term="{TERM}">{TEXT}</tspan>
   </text>
  <circle
     style="fill:#b3b3b3;fill-rule:evenodd;filter:url(#filter3829-3-6)"
     r="5.225500107"
     cx="135.9499969"
     cy="651.0700073"
     transform="matrix(0.82564,0,0,0.82466,-64.191,-532.1)"
     id="circle13075" />
  <ellipse
     id="circle13077"
     cx="47.70294571"
     cy="4.455571175"
     style="fill:{ICON.BGFILL};fill-rule:evenodd;stroke-width:1.000020504"
     rx="4.522853851"
     ry="4.51523447" />
  <rect
     style="fill:none"
     x="0"
     y="0.01001098659"
     width="52.7840004"
     height="9.524999619"
     id="rect1105" />
  <g
     id="g852"
     transform="matrix(0.82950144,0,0,0.82950144,4.1711544,-14.491898)">
    <path
       style="stroke-width:0.06508936;fill:{ICON.COLOR};"
       id="path2"
       d="m 50.61355,22.202149 1.49543,1.534418 v 2.086183 h -0.01187 v 0.0069 H 50.870778 V 24.929091 L 49.619434,23.27582 c -0.05008,-0.06162 -0.08267,-0.137468 -0.08267,-0.220586 v -2.540376 c 0,-0.198784 0.161423,-0.36066 0.361051,-0.36066 0.198327,0 0.360205,0.161876 0.360205,0.36066 v 1.46705 c -0.08727,0.01908 -0.170338,0.05572 -0.236854,0.120743 -0.191108,0.187061 -0.195794,0.494286 -0.0093,0.685843 l 0.682657,0.701929 0.09281,-0.09074 -0.683571,-0.700162 c -0.13643,-0.14131 -0.133497,-0.367237 0.0063,-0.504895 0.04405,-0.04135 0.09575,-0.07078 0.151263,-0.08645 0.05936,-0.01693 0.120743,-0.01778 0.179649,-0.0056 0.06659,0.01648 0.12588,0.05059 0.172481,0.09952 z"
       inkscape:connector-curvature="0" />
    <path
       style="stroke-width:0.06508936;fill:{ICON.COLOR};"
       id="path4"
       d="m 54.969396,22.202149 -1.496271,1.534418 v 2.086183 h 0.01185 v 0.0069 h 1.227197 v -0.900519 l 1.250955,-1.653268 c 0.05005,-0.06162 0.08266,-0.137467 0.08266,-0.220588 v -2.540371 c 0,-0.198784 -0.161425,-0.36066 -0.361053,-0.36066 -0.198331,0 -0.360208,0.161876 -0.360208,0.36066 v 1.467047 c 0.08774,0.01908 0.170346,0.05572 0.23693,0.120745 0.191489,0.187064 0.196244,0.494286 0.0097,0.685843 l -0.683118,0.701994 -0.09327,-0.09073 0.683956,-0.700236 c 0.136497,-0.141308 0.133498,-0.367232 -0.0069,-0.504896 -0.04321,-0.04135 -0.0962,-0.07076 -0.151265,-0.08644 -0.05847,-0.01696 -0.120351,-0.01776 -0.179256,-0.0056 -0.06614,0.01647 -0.125427,0.05059 -0.172033,0.09952 z"
       inkscape:connector-curvature="0" />
    <path
       style="stroke-width:0.06508936;fill:{ICON.COLOR};"
       id="path6"
       d="m 52.790857,22.773374 c 0.391513,0 0.722951,-0.141114 1.00088,-0.416509 0.277152,-0.276952 0.415269,-0.608778 0.415269,-1.001335 0,-0.390079 -0.138117,-0.725031 -0.415269,-1.001533 -0.277929,-0.277408 -0.609367,-0.412791 -1.00088,-0.412791 -0.390733,0 -0.725878,0.135383 -0.999641,0.412729 -0.279238,0.2765 -0.415728,0.611516 -0.415728,1.001531 0,0.392621 0.13649,0.724382 0.415728,1.001338 0.273696,0.275456 0.608908,0.41657 0.999641,0.41657 z"
       inkscape:connector-curvature="0" />
  </g>
</svg>
